ffmpeg started on 2025-05-19 at 20:32:53
Report written to "D:\Convert\FFMetrics\reports\ssim_report-6.txt"
Log level: 32
Command line:
ffmpeg -hide_banner -nostdin -i "G:\\\xc0\xed\xe8\xec\xe5\\\xce\xed\xe3\xee\xe8\xed\xe3\xe8\\!_32_\xce\xf1\xe5\xed\xfc_2023\\\xc7\xe0\xe1\xee\xf2\xfb \xe7\xe0\xef\xe5\xf0\xf2\xee\xe9 \xef\xf0\xe8\xed\xf6\xe5\xf1\xf1\xfb \xe2\xe0\xec\xef\xe8\xf0\xee\xe2\\Hikikomari_Kyuuketsuki_no_Monmon_[01]_[AniLibria_TV]_[WEBRip_1080p]_HEVC.mkv" -i "G:\\\xc0\xed\xe8\xec\xe5\\\xce\xed\xe3\xee\xe8\xed\xe3\xe8\\!_32_\xce\xf1\xe5\xed\xfc_2023\\\xc7\xe0\xe1\xee\xf2\xfb \xe7\xe0\xef\xe5\xf0\xf2\xee\xe9 \xef\xf0\xe8\xed\xf6\xe5\xf1\xf1\xfb \xe2\xe0\xec\xef\xe8\xf0\xee\xe2\\Hikikomari_Kyuuketsuki_no_Monmon_[01]_[AniLibria_TV]_[WEBRip_1080p].mkv" -lavfi "[0:v]settb=AVTB,setpts=PTS-STARTPTS,format=pix_fmts=yuv420p10,fps=24000/1001,scale=1920:1080:flags=bicubic[main];[1:v]settb=AVTB,setpts=PTS-STARTPTS,format=pix_fmts=yuv420p,fps=24000/1001,scale=1920:1080:flags=bicubic[ref];[main][ref]ssim=eof_action=endall:stats_file='D\\:/Convert/FFMetrics/logs/ssim_logfile-6.txt'" -f null -
Input #0, matroska,webm, from 'G:\Аниме\Онгоинги\!_32_Осень_2023\Заботы запертой принцессы вампиров\Hikikomari_Kyuuketsuki_no_Monmon_[01]_[AniLibria_TV]_[WEBRip_1080p]_HEVC.mkv':
  Metadata:
    ENCODER         : Lavf61.7.100
  Duration: 00:23:41.50, start: -0.021000, bitrate: 1252 kb/s
  Stream #0:0(jpn): Video: hevc (Main 10), yuv420p10le(tv, bt709, progressive), 1920x1080 [SAR 1:1 DAR 16:9], 23.98 fps, 23.98 tbr, 1k tbn (default)
      Metadata:
        title           : Original
        ENCODER         : Lavc61.19.100 libx265
        BPS             : 1052315
        DURATION        : 00:23:41.419708333
        NUMBER_OF_FRAMES: 34080
        NUMBER_OF_BYTES : 186972722
        _STATISTICS_WRITING_APP: mkvpropedit v66.0.0 ('Josie') 64-bit
        _STATISTICS_WRITING_DATE_UTC: 2025-05-19 10:59:34
        _STATISTICS_TAGS: BPS DURATION NUMBER_OF_FRAMES NUMBER_OF_BYTES
  Stream #0:1(rus): Audio: aac (LC), 48000 Hz, stereo, fltp (default)
      Metadata:
        title           : AniLibria.TV
        ENCODER         : Lavc61.19.100 aac
        BPS             : 195025
        DURATION        : 00:23:41.482000000
        NUMBER_OF_FRAMES: 66633
        NUMBER_OF_BYTES : 34653184
        _STATISTICS_WRITING_APP: mkvpropedit v66.0.0 ('Josie') 64-bit
        _STATISTICS_WRITING_DATE_UTC: 2025-05-19 10:59:34
        _STATISTICS_TAGS: BPS DURATION NUMBER_OF_FRAMES NUMBER_OF_BYTES
  Stream #0:2(rus): Subtitle: ass (ssa) (default)
      Metadata:
        title           : Надписи
        BPS             : 389
        DURATION        : 00:21:45.870000000
        NUMBER_OF_FRAMES: 308
        NUMBER_OF_BYTES : 63615
        _STATISTICS_WRITING_APP: mkvpropedit v66.0.0 ('Josie') 64-bit
        _STATISTICS_WRITING_DATE_UTC: 2025-05-19 10:59:34
        _STATISTICS_TAGS: BPS DURATION NUMBER_OF_FRAMES NUMBER_OF_BYTES
  Stream #0:3(rus): Subtitle: ass (ssa)
      Metadata:
        title           : Субтитры
        BPS             : 546
        DURATION        : 00:23:40.380000000
        NUMBER_OF_FRAMES: 691
        NUMBER_OF_BYTES : 97117
        _STATISTICS_WRITING_APP: mkvpropedit v66.0.0 ('Josie') 64-bit
        _STATISTICS_WRITING_DATE_UTC: 2025-05-19 10:59:34
        _STATISTICS_TAGS: BPS DURATION NUMBER_OF_FRAMES NUMBER_OF_BYTES
Input #1, matroska,webm, from 'G:\Аниме\Онгоинги\!_32_Осень_2023\Заботы запертой принцессы вампиров\Hikikomari_Kyuuketsuki_no_Monmon_[01]_[AniLibria_TV]_[WEBRip_1080p].mkv':
  Metadata:
    encoder         : libebml v1.4.2 + libmatroska v1.6.4
    creation_time   : 2025-01-14T16:57:30.000000Z
  Duration: 00:23:41.48, start: 0.000000, bitrate: 2198 kb/s
  Stream #1:0(jpn): Video: h264 (High), yuv420p(progressive), 1920x1080 [SAR 1:1 DAR 16:9], 23.98 fps, 23.98 tbr, 1k tbn (default)
      Metadata:
        title           : Original
        BPS             : 1998513
        DURATION        : 00:23:41.420000000
        NUMBER_OF_FRAMES: 34080
        NUMBER_OF_BYTES : 355090938
        _STATISTICS_WRITING_APP: mkvmerge v66.0.0 ('Josie') 64-bit
        _STATISTICS_WRITING_DATE_UTC: 2025-01-14 16:57:30
        _STATISTICS_TAGS: BPS DURATION NUMBER_OF_FRAMES NUMBER_OF_BYTES
  Stream #1:1(rus): Audio: aac (LC), 48000 Hz, stereo, fltp (default)
      Metadata:
        title           : AniLibria.TV
        BPS             : 191999
        DURATION        : 00:23:41.483000000
        NUMBER_OF_FRAMES: 66632
        NUMBER_OF_BYTES : 34115585
        _STATISTICS_WRITING_APP: mkvmerge v66.0.0 ('Josie') 64-bit
        _STATISTICS_WRITING_DATE_UTC: 2025-01-14 16:57:30
        _STATISTICS_TAGS: BPS DURATION NUMBER_OF_FRAMES NUMBER_OF_BYTES
  Stream #1:2(rus): Subtitle: ass (ssa) (default)
      Metadata:
        title           : Надписи
        BPS             : 389
        DURATION        : 00:21:45.870000000
        NUMBER_OF_FRAMES: 308
        NUMBER_OF_BYTES : 63615
        _STATISTICS_WRITING_APP: mkvmerge v66.0.0 ('Josie') 64-bit
        _STATISTICS_WRITING_DATE_UTC: 2025-01-14 16:57:30
        _STATISTICS_TAGS: BPS DURATION NUMBER_OF_FRAMES NUMBER_OF_BYTES
  Stream #1:3(rus): Subtitle: ass (ssa)
      Metadata:
        title           : Субтитры
        BPS             : 546
        DURATION        : 00:23:40.380000000
        NUMBER_OF_FRAMES: 691
        NUMBER_OF_BYTES : 97117
        _STATISTICS_WRITING_APP: mkvmerge v66.0.0 ('Josie') 64-bit
        _STATISTICS_WRITING_DATE_UTC: 2025-01-14 16:57:30
        _STATISTICS_TAGS: BPS DURATION NUMBER_OF_FRAMES NUMBER_OF_BYTES
  Stream #1:4: Attachment: ttf
      Metadata:
        filename        : BTS35.ttf
        mimetype        : application/x-truetype-font
  Stream #1:5: Attachment: ttf
      Metadata:
        filename        : phagspab.ttf
        mimetype        : application/x-truetype-font
  Stream #1:6: Attachment: ttf
      Metadata:
        filename        : tt0142m.ttf
        mimetype        : application/x-truetype-font
  Stream #1:7: Attachment: ttf
      Metadata:
        filename        : AGCOSCR.TTF
        mimetype        : application/x-truetype-font
  Stream #1:8: Attachment: ttf
      Metadata:
        filename        : allods_west.ttf
        mimetype        : application/x-truetype-font
  Stream #1:9: Attachment: ttf
      Metadata:
        filename        : Roboto-Medium.ttf
        mimetype        : application/x-truetype-font
Stream mapping:
  Stream #0:0 (hevc) -> settb:default
  Stream #1:0 (h264) -> settb:default
  ssim:default -> Stream #0:0 (wrapped_avframe)
  Stream #0:1 -> #0:1 (aac (native) -> pcm_s16le (native))
[swscaler @ 0000022e65382440] No accelerated colorspace conversion found from yuv420p to bgr48le.
[swscaler @ 0000022e6542e340] No accelerated colorspace conversion found from yuv420p to bgr48le.
[swscaler @ 0000022e65653fc0] No accelerated colorspace conversion found from yuv420p to bgr48le.
[swscaler @ 0000022e65766880] No accelerated colorspace conversion found from yuv420p to bgr48le.
[swscaler @ 0000022e6592adc0] No accelerated colorspace conversion found from yuv420p to bgr48le.
[swscaler @ 0000022e65986040] No accelerated colorspace conversion found from yuv420p to bgr48le.
[swscaler @ 0000022e659a0000] No accelerated colorspace conversion found from yuv420p to bgr48le.
[swscaler @ 0000022e6bb400c0] No accelerated colorspace conversion found from yuv420p to bgr48le.
[swscaler @ 0000022e6bcf2140] No accelerated colorspace conversion found from yuv420p to bgr48le.
[swscaler @ 0000022e6bfa5d40] No accelerated colorspace conversion found from yuv420p to bgr48le.
[swscaler @ 0000022e6bfc7d00] No accelerated colorspace conversion found from yuv420p to bgr48le.
[swscaler @ 0000022e6c0b9000] No accelerated colorspace conversion found from yuv420p to bgr48le.
[swscaler @ 0000022e6c263c80] No accelerated colorspace conversion found from yuv420p to bgr48le.
[swscaler @ 0000022e6c40ee00] No accelerated colorspace conversion found from yuv420p to bgr48le.
[swscaler @ 0000022e6c503040] No accelerated colorspace conversion found from yuv420p to bgr48le.
[swscaler @ 0000022e6c51d000] No accelerated colorspace conversion found from yuv420p to bgr48le.
Output #0, null, to 'pipe:':
  Metadata:
    encoder         : Lavf61.7.100
  Stream #0:0: Video: wrapped_avframe, yuv420p10le(tv, bt709, progressive), 1920x1080 [SAR 1:1 DAR 16:9], q=2-31, 200 kb/s, 23.98 fps, 23.98 tbn
      Metadata:
        encoder         : Lavc61.19.100 wrapped_avframe
  Stream #0:1(rus): Audio: pcm_s16le, 48000 Hz, stereo, s16, 1536 kb/s (default)
      Metadata:
        title           : AniLibria.TV
        _STATISTICS_TAGS: BPS DURATION NUMBER_OF_FRAMES NUMBER_OF_BYTES
        BPS             : 195025
        DURATION        : 00:23:41.482000000
        NUMBER_OF_FRAMES: 66633
        NUMBER_OF_BYTES : 34653184
        _STATISTICS_WRITING_APP: mkvpropedit v66.0.0 ('Josie') 64-bit
        _STATISTICS_WRITING_DATE_UTC: 2025-05-19 10:59:34
        encoder         : Lavc61.19.100 pcm_s16le
frame=   32 fps=0.0 q=-0.0 size=N/A time=00:00:01.33 bitrate=N/A speed=2.56x    frame=   72 fps= 70 q=-0.0 size=N/A time=00:00:03.00 bitrate=N/A speed=2.92x    frame=  111 fps= 72 q=-0.0 size=N/A time=00:00:04.62 bitrate=N/A speed=2.98x    frame=  149 fps= 72 q=-0.0 size=N/A time=00:00:06.21 bitrate=N/A speed=3.01x    frame=  189 fps= 73 q=-0.0 size=N/A time=00:00:07.88 bitrate=N/A speed=3.05x    frame=  223 fps= 72 q=-0.0 size=N/A time=00:00:09.30 bitrate=N/A speed=2.99x    frame=  268 fps= 74 q=-0.0 size=N/A time=00:00:11.17 bitrate=N/A speed=3.09x    frame=  307 fps= 74 q=-0.0 size=N/A time=00:00:12.80 bitrate=N/A speed=3.09x    frame=  340 fps= 73 q=-0.0 size=N/A time=00:00:14.18 bitrate=N/A speed=3.05x    frame=  385 fps= 74 q=-0.0 size=N/A time=00:00:16.05 bitrate=N/A speed= 3.1x    frame=  424 fps= 75 q=-0.0 size=N/A time=00:00:17.68 bitrate=N/A speed=3.11x    frame=  462 fps= 74 q=-0.0 size=N/A time=00:00:19.26 bitrate=N/A speed= 3.1x    frame=  504 fps= 75 q=-0.0 size=N/A time=00:00:21.02 bitrate=N/A speed=3.12x    frame=  542 fps= 75 q=-0.0 size=N/A time=00:00:22.60 bitrate=N/A speed=3.12x    frame=  572 fps= 74 q=-0.0 size=N/A time=00:00:23.85 bitrate=N/A speed=3.07x    frame=  617 fps= 75 q=-0.0 size=N/A time=00:00:25.73 bitrate=N/A speed=3.11x    frame=  655 fps= 74 q=-0.0 size=N/A time=00:00:27.31 bitrate=N/A speed= 3.1x    frame=  682 fps= 73 q=-0.0 size=N/A time=00:00:28.44 bitrate=N/A speed=3.06x    frame=  736 fps= 75 q=-0.0 size=N/A time=00:00:30.69 bitrate=N/A speed=3.12x    frame=  774 fps= 75 q=-0.0 size=N/A time=00:00:32.28 bitrate=N/A speed=3.12x    frame=  813 fps= 75 q=-0.0 size=N/A time=00:00:33.90 bitrate=N/A speed=3.12x    frame=  846 fps= 74 q=-0.0 size=N/A time=00:00:35.28 bitrate=N/A speed= 3.1x    frame=  892 fps= 75 q=-0.0 size=N/A time=00:00:37.20 bitrate=N/A speed=3.13x    frame=  930 fps= 75 q=-0.0 size=N/A time=00:00:38.78 bitrate=N/A speed=3.13x    frame=  970 fps= 75 q=-0.0 size=N/A time=00:00:40.45 bitrate=N/A speed=3.13x    frame= 1009 fps= 75 q=-0.0 size=N/A time=00:00:42.08 bitrate=N/A speed=3.13x    frame= 1042 fps= 75 q=-0.0 size=N/A time=00:00:43.46 bitrate=N/A speed=3.12x    frame= 1087 fps= 75 q=-0.0 size=N/A time=00:00:45.33 bitrate=N/A speed=3.13x    frame= 1123 fps= 75 q=-0.0 size=N/A time=00:00:46.83 bitrate=N/A speed=3.13x    frame= 1166 fps= 75 q=-0.0 size=N/A time=00:00:48.63 bitrate=N/A speed=3.14x    frame= 1203 fps= 75 q=-0.0 size=N/A time=00:00:50.17 bitrate=N/A speed=3.13x    frame= 1235 fps= 75 q=-0.0 size=N/A time=00:00:51.50 bitrate=N/A speed=3.12x    frame= 1285 fps= 75 q=-0.0 size=N/A time=00:00:53.59 bitrate=N/A speed=3.14x    frame= 1313 fps= 75 q=-0.0 size=N/A time=00:00:54.76 bitrate=N/A speed=3.12x    frame= 1358 fps= 75 q=-0.0 size=N/A time=00:00:56.63 bitrate=N/A speed=3.13x    frame= 1394 fps= 75 q=-0.0 size=N/A time=00:00:58.14 bitrate=N/A speed=3.13x    frame= 1441 fps= 75 q=-0.0 size=N/A time=00:01:00.10 bitrate=N/A speed=3.15x    frame= 1474 fps= 75 q=-0.0 size=N/A time=00:01:01.47 bitrate=N/A speed=3.13x    frame= 1513 fps= 75 q=-0.0 size=N/A time=00:01:03.10 bitrate=N/A speed=3.13x    frame= 1547 fps= 75 q=-0.0 size=N/A time=00:01:04.52 bitrate=N/A speed=3.12x    frame= 1594 fps= 75 q=-0.0 size=N/A time=00:01:06.48 bitrate=N/A speed=3.14x    frame= 1626 fps= 75 q=-0.0 size=N/A time=00:01:07.81 bitrate=N/A speed=3.13x    frame= 1672 fps= 75 q=-0.0 size=N/A time=00:01:09.73 bitrate=N/A speed=3.14x    frame= 1710 fps= 75 q=-0.0 size=N/A time=00:01:11.32 bitrate=N/A speed=3.14x    frame= 1749 fps= 75 q=-0.0 size=N/A time=00:01:12.94 bitrate=N/A speed=3.14x    frame= 1789 fps= 75 q=-0.0 size=N/A time=00:01:14.61 bitrate=N/A speed=3.14x    frame= 1821 fps= 75 q=-0.0 size=N/A time=00:01:15.95 bitrate=N/A speed=3.13x    frame= 1866 fps= 75 q=-0.0 size=N/A time=00:01:17.82 bitrate=N/A speed=3.14x    frame= 1900 fps= 75 q=-0.0 size=N/A time=00:01:19.24 bitrate=N/A speed=3.13x    frame= 1945 fps= 75 q=-0.0 size=N/A time=00:01:21.12 bitrate=N/A speed=3.14x    frame= 1981 fps= 75 q=-0.0 size=N/A time=00:01:22.62 bitrate=N/A speed=3.14x    frame= 2017 fps= 75 q=-0.0 size=N/A time=00:01:24.12 bitrate=N/A speed=3.13x    frame= 2062 fps= 75 q=-0.0 size=N/A time=00:01:26.00 bitrate=N/A speed=3.14x    frame= 2098 fps= 75 q=-0.0 size=N/A time=00:01:27.50 bitrate=N/A speed=3.14x    frame= 2140 fps= 75 q=-0.0 size=N/A time=00:01:29.25 bitrate=N/A speed=3.14x    frame= 2179 fps= 75 q=-0.0 size=N/A time=00:01:30.88 bitrate=N/A speed=3.14x    frame= 2219 fps= 75 q=-0.0 size=N/A time=00:01:32.55 bitrate=N/A speed=3.15x    frame= 2257 fps= 75 q=-0.0 size=N/A time=00:01:34.13 bitrate=N/A speed=3.14x    frame= 2292 fps= 75 q=-0.0 size=N/A time=00:01:35.59 bitrate=N/A speed=3.14x    frame= 2334 fps= 75 q=-0.0 size=N/A time=00:01:37.34 bitrate=N/A speed=3.14x    frame= 2373 fps= 75 q=-0.0 size=N/A time=00:01:38.97 bitrate=N/A speed=3.14x    frame= 2409 fps= 75 q=-0.0 size=N/A time=00:01:40.47 bitrate=N/A speed=3.14x    frame= 2453 fps= 75 q=-0.0 size=N/A time=00:01:42.31 bitrate=N/A speed=3.15x    frame= 2485 fps= 75 q=-0.0 size=N/A time=00:01:43.64 bitrate=N/A speed=3.14x    frame= 2522 fps= 75 q=-0.0 size=N/A time=00:01:45.18 bitrate=N/A speed=3.13x    frame= 2571 fps= 75 q=-0.0 size=N/A time=00:01:47.23 bitrate=N/A speed=3.15x    frame= 2609 fps= 75 q=-0.0 size=N/A time=00:01:48.81 bitrate=N/A speed=3.15x    frame= 2636 fps= 75 q=-0.0 size=N/A time=00:01:49.94 bitrate=N/A speed=3.13x    frame= 2688 fps= 75 q=-0.0 size=N/A time=00:01:52.11 bitrate=N/A speed=3.15x    frame= 2726 fps= 75 q=-0.0 size=N/A time=00:01:53.69 bitrate=N/A speed=3.15x    frame= 2766 fps= 75 q=-0.0 size=N/A time=00:01:55.36 bitrate=N/A speed=3.15x    frame= 2804 fps= 75 q=-0.0 size=N/A time=00:01:56.95 bitrate=N/A speed=3.15x    frame= 2841 fps= 75 q=-0.0 size=N/A time=00:01:58.49 bitrate=N/A speed=3.15x    frame= 2881 fps= 75 q=-0.0 size=N/A time=00:02:00.16 bitrate=N/A speed=3.15x    frame= 2915 fps= 75 q=-0.0 size=N/A time=00:02:01.57 bitrate=N/A speed=3.14x    frame= 2944 fps= 75 q=-0.0 size=N/A time=00:02:02.78 bitrate=N/A speed=3.13x    frame= 2991 fps= 75 q=-0.0 size=N/A time=00:02:04.74 bitrate=N/A speed=3.14x    frame= 3036 fps= 75 q=-0.0 size=N/A time=00:02:06.62 bitrate=N/A speed=3.15x    frame= 3071 fps= 75 q=-0.0 size=N/A time=00:02:08.08 bitrate=N/A speed=3.14x    frame= 3115 fps= 75 q=-0.0 size=N/A time=00:02:09.92 bitrate=N/A speed=3.15x    frame= 3151 fps= 75 q=-0.0 size=N/A time=00:02:11.42 bitrate=N/A speed=3.14x    frame= 3181 fps= 75 q=-0.0 size=N/A time=00:02:12.67 bitrate=N/A speed=3.14x    frame= 3233 fps= 75 q=-0.0 size=N/A time=00:02:14.84 bitrate=N/A speed=3.15x    frame= 3266 fps= 75 q=-0.0 size=N/A time=00:02:16.21 bitrate=N/A speed=3.14x    frame= 3311 fps= 75 q=-0.0 size=N/A time=00:02:18.09 bitrate=N/A speed=3.15x    frame= 3348 fps= 75 q=-0.0 size=N/A time=00:02:19.63 bitrate=N/A speed=3.15x    frame= 3386 fps= 75 q=-0.0 size=N/A time=00:02:21.22 bitrate=N/A speed=3.15x    frame= 3419 fps= 75 q=-0.0 size=N/A time=00:02:22.60 bitrate=N/A speed=3.14x    frame= 3465 fps= 75 q=-0.0 size=N/A time=00:02:24.51 bitrate=N/A speed=3.15x    frame= 3494 fps= 75 q=-0.0 size=N/A time=00:02:25.72 bitrate=N/A speed=3.14x    frame= 3540 fps= 75 q=-0.0 size=N/A time=00:02:27.64 bitrate=N/A speed=3.14x    frame= 3580 fps= 75 q=-0.0 size=N/A time=00:02:29.31 bitrate=N/A speed=3.15x    frame= 3618 fps= 75 q=-0.0 size=N/A time=00:02:30.90 bitrate=N/A speed=3.14x    frame= 3656 fps= 75 q=-0.0 size=N/A time=00:02:32.48 bitrate=N/A speed=3.14x    frame= 3695 fps= 75 q=-0.0 size=N/A time=00:02:34.11 bitrate=N/A speed=3.14x    frame= 3731 fps= 75 q=-0.0 size=N/A time=00:02:35.61 bitrate=N/A speed=3.14x    frame= 3770 fps= 75 q=-0.0 size=N/A time=00:02:37.24 bitrate=N/A speed=3.14x    frame= 3808 fps= 75 q=-0.0 size=N/A time=00:02:38.82 bitrate=N/A speed=3.14x    frame= 3844 fps= 75 q=-0.0 size=N/A time=00:02:40.32 bitrate=N/A speed=3.14x    frame= 3874 fps= 75 q=-0.0 size=N/A time=00:02:41.57 bitrate=N/A speed=3.13x    frame= 3925 fps= 75 q=-0.0 size=N/A time=00:02:43.70 bitrate=N/A speed=3.14x    frame= 3961 fps= 75 q=-0.0 size=N/A time=00:02:45.20 bitrate=N/A speed=3.14x    frame= 4004 fps= 75 q=-0.0 size=N/A time=00:02:47.00 bitrate=N/A speed=3.14x    frame= 4043 fps= 75 q=-0.0 size=N/A time=00:02:48.62 bitrate=N/A speed=3.14x    frame= 4084 fps= 75 q=-0.0 size=N/A time=00:02:50.33 bitrate=N/A speed=3.14x    frame= 4121 fps= 75 q=-0.0 size=N/A time=00:02:51.88 bitrate=N/A speed=3.14x    frame= 4161 fps= 75 q=-0.0 size=N/A time=00:02:53.54 bitrate=N/A speed=3.14x    frame= 4199 fps= 75 q=-0.0 size=N/A time=00:02:55.13 bitrate=N/A speed=3.14x    frame= 4239 fps= 75 q=-0.0 size=N/A time=00:02:56.80 bitrate=N/A speed=3.14x    frame= 4277 fps= 75 q=-0.0 size=N/A time=00:02:58.38 bitrate=N/A speed=3.14x    frame= 4316 fps= 75 q=-0.0 size=N/A time=00:03:00.01 bitrate=N/A speed=3.14x    frame= 4349 fps= 75 q=-0.0 size=N/A time=00:03:01.38 bitrate=N/A speed=3.14x    frame= 4394 fps= 75 q=-0.0 size=N/A time=00:03:03.26 bitrate=N/A speed=3.14x    frame= 4433 fps= 75 q=-0.0 size=N/A time=00:03:04.89 bitrate=N/A speed=3.14x    frame= 4472 fps= 75 q=-0.0 size=N/A time=00:03:06.51 bitrate=N/A speed=3.14x    frame= 4509 fps= 75 q=-0.0 size=N/A time=00:03:08.06 bitrate=N/A speed=3.14x    frame= 4548 fps= 75 q=-0.0 size=N/A time=00:03:09.68 bitrate=N/A speed=3.14x    frame= 4577 fps= 75 q=-0.0 size=N/A time=00:03:10.89 bitrate=N/A speed=3.14x    frame= 4624 fps= 75 q=-0.0 size=N/A time=00:03:12.85 bitrate=N/A speed=3.14x    frame= 4662 fps= 75 q=-0.0 size=N/A time=00:03:14.44 bitrate=N/A speed=3.14x    frame= 4702 fps= 75 q=-0.0 size=N/A time=00:03:16.11 bitrate=N/A speed=3.14x    frame= 4742 fps= 75 q=-0.0 size=N/A time=00:03:17.78 bitrate=N/A speed=3.14x    frame= 4781 fps= 75 q=-0.0 size=N/A time=00:03:19.40 bitrate=N/A speed=3.14x    frame= 4806 fps= 75 q=-0.0 size=N/A time=00:03:20.45 bitrate=N/A speed=3.13x    frame= 4852 fps= 75 q=-0.0 size=N/A time=00:03:22.36 bitrate=N/A speed=3.14x    frame= 4897 fps= 75 q=-0.0 size=N/A time=00:03:24.24 bitrate=N/A speed=3.14x    frame= 4936 fps= 75 q=-0.0 size=N/A time=00:03:25.87 bitrate=N/A speed=3.14x    frame= 4975 fps= 75 q=-0.0 size=N/A time=00:03:27.49 bitrate=N/A speed=3.14x    frame= 5013 fps= 75 q=-0.0 size=N/A time=00:03:29.08 bitrate=N/A speed=3.14x    frame= 5051 fps= 75 q=-0.0 size=N/A time=00:03:30.66 bitrate=N/A speed=3.14x    frame= 5090 fps= 75 q=-0.0 size=N/A time=00:03:32.29 bitrate=N/A speed=3.14x    frame= 5121 fps= 75 q=-0.0 size=N/A time=00:03:33.58 bitrate=N/A speed=3.14x    frame= 5168 fps= 75 q=-0.0 size=N/A time=00:03:35.54 bitrate=N/A speed=3.14x    frame= 5205 fps= 75 q=-0.0 size=N/A time=00:03:37.09 bitrate=N/A speed=3.14x    frame= 5241 fps= 75 q=-0.0 size=N/A time=00:03:38.59 bitrate=N/A speed=3.14x    frame= 5285 fps= 75 q=-0.0 size=N/A time=00:03:40.42 bitrate=N/A speed=3.14x    frame= 5322 fps= 75 q=-0.0 size=N/A time=00:03:41.97 bitrate=N/A speed=3.14x    frame= 5363 fps= 75 q=-0.0 size=N/A time=00:03:43.68 bitrate=N/A speed=3.14x    frame= 5403 fps= 75 q=-0.0 size=N/A time=00:03:45.35 bitrate=N/A speed=3.14x    frame= 5442 fps= 75 q=-0.0 size=N/A time=00:03:46.97 bitrate=N/A speed=3.14x    frame= 5481 fps= 75 q=-0.0 size=N/A time=00:03:48.60 bitrate=N/A speed=3.14x    frame= 5519 fps= 75 q=-0.0 size=N/A time=00:03:50.18 bitrate=N/A speed=3.14x    frame= 5549 fps= 75 q=-0.0 size=N/A time=00:03:51.43 bitrate=N/A speed=3.14x    frame= 5591 fps= 75 q=-0.0 size=N/A time=00:03:53.19 bitrate=N/A speed=3.14x    frame= 5637 fps= 75 q=-0.0 size=N/A time=00:03:55.10 bitrate=N/A speed=3.14x    frame= 5670 fps= 75 q=-0.0 size=N/A time=00:03:56.48 bitrate=N/A speed=3.14x    frame= 5714 fps= 75 q=-0.0 size=N/A time=00:03:58.32 bitrate=N/A speed=3.14x    frame= 5751 fps= 75 q=-0.0 size=N/A time=00:03:59.86 bitrate=N/A speed=3.14x    frame= 5791 fps= 75 q=-0.0 size=N/A time=00:04:01.53 bitrate=N/A speed=3.14x    frame= 5830 fps= 75 q=-0.0 size=N/A time=00:04:03.15 bitrate=N/A speed=3.14x    frame= 5869 fps= 75 q=-0.0 size=N/A time=00:04:04.78 bitrate=N/A speed=3.14x    frame= 5908 fps= 75 q=-0.0 size=N/A time=00:04:06.41 bitrate=N/A speed=3.14x    frame= 5947 fps= 75 q=-0.0 size=N/A time=00:04:08.03 bitrate=N/A speed=3.14x    frame= 5987 fps= 75 q=-0.0 size=N/A time=00:04:09.70 bitrate=N/A speed=3.14x    frame= 6022 fps= 75 q=-0.0 size=N/A time=00:04:11.16 bitrate=N/A speed=3.14x    frame= 6063 fps= 75 q=-0.0 size=N/A time=00:04:12.87 bitrate=N/A speed=3.14x    frame= 6101 fps= 75 q=-0.0 size=N/A time=00:04:14.46 bitrate=N/A speed=3.14x    frame= 6139 fps= 75 q=-0.0 size=N/A time=00:04:16.04 bitrate=N/A speed=3.14x    frame= 6177 fps= 75 q=-0.0 size=N/A time=00:04:17.63 bitrate=N/A speed=3.14x    frame= 6216 fps= 75 q=-0.0 size=N/A time=00:04:19.25 bitrate=N/A speed=3.14x    frame= 6256 fps= 75 q=-0.0 size=N/A time=00:04:20.92 bitrate=N/A speed=3.14x    frame= 6296 fps= 75 q=-0.0 size=N/A time=00:04:22.59 bitrate=N/A speed=3.14x    frame= 6335 fps= 75 q=-0.0 size=N/A time=00:04:24.22 bitrate=N/A speed=3.14x    frame= 6373 fps= 75 q=-0.0 size=N/A time=00:04:25.80 bitrate=N/A speed=3.14x    frame= 6413 fps= 75 q=-0.0 size=N/A time=00:04:27.47 bitrate=N/A speed=3.14x    frame= 6452 fps= 75 q=-0.0 size=N/A time=00:04:29.10 bitrate=N/A speed=3.14x    frame= 6492 fps= 75 q=-0.0 size=N/A time=00:04:30.77 bitrate=N/A speed=3.14x    frame= 6531 fps= 75 q=-0.0 size=N/A time=00:04:32.39 bitrate=N/A speed=3.14x    frame= 6568 fps= 75 q=-0.0 size=N/A time=00:04:33.94 bitrate=N/A speed=3.14x    frame= 6602 fps= 75 q=-0.0 size=N/A time=00:04:35.35 bitrate=N/A speed=3.14x    frame= 6649 fps= 75 q=-0.0 size=N/A time=00:04:37.31 bitrate=N/A speed=3.14x    frame= 6679 fps= 75 q=-0.0 size=N/A time=00:04:38.56 bitrate=N/A speed=3.14x    frame= 6727 fps= 75 q=-0.0 size=N/A time=00:04:40.57 bitrate=N/A speed=3.14x    frame= 6765 fps= 75 q=-0.0 size=N/A time=00:04:42.15 bitrate=N/A speed=3.14x    frame= 6798 fps= 75 q=-0.0 size=N/A time=00:04:43.53 bitrate=N/A speed=3.14x    frame= 6843 fps= 75 q=-0.0 size=N/A time=00:04:45.41 bitrate=N/A speed=3.14x    frame= 6882 fps= 75 q=-0.0 size=N/A time=00:04:47.03 bitrate=N/A speed=3.14x    frame= 6920 fps= 75 q=-0.0 size=N/A time=00:04:48.62 bitrate=N/A speed=3.14x    frame= 6960 fps= 75 q=-0.0 size=N/A time=00:04:50.29 bitrate=N/A speed=3.14x    frame= 6997 fps= 75 q=-0.0 size=N/A time=00:04:51.83 bitrate=N/A speed=3.14x    frame= 7038 fps= 75 q=-0.0 size=N/A time=00:04:53.54 bitrate=N/A speed=3.14x    frame= 7077 fps= 75 q=-0.0 size=N/A time=00:04:55.16 bitrate=N/A speed=3.14x    frame= 7110 fps= 75 q=-0.0 size=N/A time=00:04:56.54 bitrate=N/A speed=3.14x    frame= 7154 fps= 75 q=-0.0 size=N/A time=00:04:58.38 bitrate=N/A speed=3.14x    frame= 7193 fps= 75 q=-0.0 size=N/A time=00:05:00.00 bitrate=N/A speed=3.14x    frame= 7232 fps= 75 q=-0.0 size=N/A time=00:05:01.63 bitrate=N/A speed=3.14x    frame= 7272 fps= 75 q=-0.0 size=N/A time=00:05:03.30 bitrate=N/A speed=3.14x    frame= 7311 fps= 75 q=-0.0 size=N/A time=00:05:04.92 bitrate=N/A speed=3.14x    frame= 7349 fps= 75 q=-0.0 size=N/A time=00:05:06.51 bitrate=N/A speed=3.14x    frame= 7387 fps= 75 q=-0.0 size=N/A time=00:05:08.09 bitrate=N/A speed=3.14x    frame= 7426 fps= 75 q=-0.0 size=N/A time=00:05:09.72 bitrate=N/A speed=3.14x    frame= 7466 fps= 75 q=-0.0 size=N/A time=00:05:11.39 bitrate=N/A speed=3.14x    frame= 7505 fps= 75 q=-0.0 size=N/A time=00:05:13.02 bitrate=N/A speed=3.14x    frame= 7543 fps= 75 q=-0.0 size=N/A time=00:05:14.60 bitrate=N/A speed=3.14x    frame= 7584 fps= 75 q=-0.0 size=N/A time=00:05:16.31 bitrate=N/A speed=3.14x    frame= 7622 fps= 75 q=-0.0 size=N/A time=00:05:17.90 bitrate=N/A speed=3.14x    frame= 7659 fps= 75 q=-0.0 size=N/A time=00:05:19.44 bitrate=N/A speed=3.14x    frame= 7695 fps= 75 q=-0.0 size=N/A time=00:05:20.94 bitrate=N/A speed=3.14x    frame= 7740 fps= 75 q=-0.0 size=N/A time=00:05:22.82 bitrate=N/A speed=3.15x    frame= 7777 fps= 75 q=-0.0 size=N/A time=00:05:24.36 bitrate=N/A speed=3.14x    frame= 7818 fps= 75 q=-0.0 size=N/A time=00:05:26.07 bitrate=N/A speed=3.15x    frame= 7858 fps= 75 q=-0.0 size=N/A time=00:05:27.74 bitrate=N/A speed=3.15x    frame= 7896 fps= 75 q=-0.0 size=N/A time=00:05:29.32 bitrate=N/A speed=3.15x    frame= 7935 fps= 75 q=-0.0 size=N/A time=00:05:30.95 bitrate=N/A speed=3.15x    frame= 7976 fps= 75 q=-0.0 size=N/A time=00:05:32.66 bitrate=N/A speed=3.15x    frame= 8014 fps= 75 q=-0.0 size=N/A time=00:05:34.25 bitrate=N/A speed=3.15x    frame= 8053 fps= 75 q=-0.0 size=N/A time=00:05:35.87 bitrate=N/A speed=3.15x    frame= 8093 fps= 75 q=-0.0 size=N/A time=00:05:37.54 bitrate=N/A speed=3.15x    frame= 8133 fps= 75 q=-0.0 size=N/A time=00:05:39.21 bitrate=N/A speed=3.15x    frame= 8170 fps= 75 q=-0.0 size=N/A time=00:05:40.75 bitrate=N/A speed=3.15x    frame= 8212 fps= 75 q=-0.0 size=N/A time=00:05:42.50 bitrate=N/A speed=3.15x    frame= 8251 fps= 75 q=-0.0 size=N/A time=00:05:44.13 bitrate=N/A speed=3.15x    frame= 8291 fps= 75 q=-0.0 size=N/A time=00:05:45.80 bitrate=N/A speed=3.15x    frame= 8331 fps= 75 q=-0.0 size=N/A time=00:05:47.47 bitrate=N/A speed=3.15x    frame= 8370 fps= 75 q=-0.0 size=N/A time=00:05:49.09 bitrate=N/A speed=3.15x    frame= 8409 fps= 75 q=-0.0 size=N/A time=00:05:50.72 bitrate=N/A speed=3.15x    frame= 8440 fps= 75 q=-0.0 size=N/A time=00:05:52.01 bitrate=N/A speed=3.15x    frame= 8486 fps= 75 q=-0.0 size=N/A time=00:05:53.93 bitrate=N/A speed=3.15x    frame= 8524 fps= 75 q=-0.0 size=N/A time=00:05:55.52 bitrate=N/A speed=3.15x    frame= 8557 fps= 75 q=-0.0 size=N/A time=00:05:56.89 bitrate=N/A speed=3.15x    frame= 8603 fps= 75 q=-0.0 size=N/A time=00:05:58.81 bitrate=N/A speed=3.15x    frame= 8640 fps= 75 q=-0.0 size=N/A time=00:06:00.36 bitrate=N/A speed=3.15x    frame= 8680 fps= 75 q=-0.0 size=N/A time=00:06:02.02 bitrate=N/A speed=3.15x    frame= 8714 fps= 75 q=-0.0 size=N/A time=00:06:03.44 bitrate=N/A speed=3.15x    frame= 8750 fps= 75 q=-0.0 size=N/A time=00:06:04.94 bitrate=N/A speed=3.14x    frame= 8786 fps= 75 q=-0.0 size=N/A time=00:06:06.44 bitrate=N/A speed=3.14x    frame= 8838 fps= 75 q=-0.0 size=N/A time=00:06:08.61 bitrate=N/A speed=3.15x    frame= 8877 fps= 75 q=-0.0 size=N/A time=00:06:10.24 bitrate=N/A speed=3.15x    frame= 8916 fps= 75 q=-0.0 size=N/A time=00:06:11.87 bitrate=N/A speed=3.15x    frame= 8956 fps= 76 q=-0.0 size=N/A time=00:06:13.53 bitrate=N/A speed=3.15x    frame= 8995 fps= 75 q=-0.0 size=N/A time=00:06:15.16 bitrate=N/A speed=3.15x    frame= 9030 fps= 75 q=-0.0 size=N/A time=00:06:16.62 bitrate=N/A speed=3.15x    frame= 9075 fps= 76 q=-0.0 size=N/A time=00:06:18.50 bitrate=N/A speed=3.15x    frame= 9113 fps= 76 q=-0.0 size=N/A time=00:06:20.08 bitrate=N/A speed=3.15x    frame= 9151 fps= 76 q=-0.0 size=N/A time=00:06:21.67 bitrate=N/A speed=3.15x    frame= 9184 fps= 75 q=-0.0 size=N/A time=00:06:23.04 bitrate=N/A speed=3.15x    frame= 9230 fps= 76 q=-0.0 size=N/A time=00:06:24.96 bitrate=N/A speed=3.15x    frame= 9267 fps= 75 q=-0.0 size=N/A time=00:06:26.51 bitrate=N/A speed=3.15x    frame= 9300 fps= 75 q=-0.0 size=N/A time=00:06:27.88 bitrate=N/A speed=3.15x    frame= 9345 fps= 75 q=-0.0 size=N/A time=00:06:29.76 bitrate=N/A speed=3.15x    frame= 9381 fps= 75 q=-0.0 size=N/A time=00:06:31.26 bitrate=N/A speed=3.15x    frame= 9423 fps= 75 q=-0.0 size=N/A time=00:06:33.01 bitrate=N/A speed=3.15x    frame= 9461 fps= 75 q=-0.0 size=N/A time=00:06:34.60 bitrate=N/A speed=3.15x    frame= 9488 fps= 75 q=-0.0 size=N/A time=00:06:35.72 bitrate=N/A speed=3.14x    frame= 9541 fps= 76 q=-0.0 size=N/A time=00:06:37.93 bitrate=N/A speed=3.15x    frame= 9577 fps= 75 q=-0.0 size=N/A time=00:06:39.44 bitrate=N/A speed=3.15x    frame= 9618 fps= 75 q=-0.0 size=N/A time=00:06:41.15 bitrate=N/A speed=3.15x    frame= 9657 fps= 76 q=-0.0 size=N/A time=00:06:42.77 bitrate=N/A speed=3.15x    frame= 9697 fps= 76 q=-0.0 size=N/A time=00:06:44.44 bitrate=N/A speed=3.15x    frame= 9737 fps= 76 q=-0.0 size=N/A time=00:06:46.11 bitrate=N/A speed=3.15x    frame= 9775 fps= 76 q=-0.0 size=N/A time=00:06:47.69 bitrate=N/A speed=3.15x    frame= 9812 fps= 75 q=-0.0 size=N/A time=00:06:49.24 bitrate=N/A speed=3.15x    frame= 9854 fps= 76 q=-0.0 size=N/A time=00:06:50.99 bitrate=N/A speed=3.15x    frame= 9886 fps= 75 q=-0.0 size=N/A time=00:06:52.32 bitrate=N/A speed=3.15x    frame= 9931 fps= 76 q=-0.0 size=N/A time=00:06:54.20 bitrate=N/A speed=3.15x    frame= 9970 fps= 76 q=-0.0 size=N/A time=00:06:55.83 bitrate=N/A speed=3.15x    frame=10009 fps= 76 q=-0.0 size=N/A time=00:06:57.45 bitrate=N/A speed=3.15x    frame=10048 fps= 76 q=-0.0 size=N/A time=00:06:59.08 bitrate=N/A speed=3.15x    frame=10080 fps= 75 q=-0.0 size=N/A time=00:07:00.42 bitrate=N/A speed=3.15x    frame=10116 fps= 75 q=-0.0 size=N/A time=00:07:01.92 bitrate=N/A speed=3.15x    frame=10162 fps= 75 q=-0.0 size=N/A time=00:07:03.84 bitrate=N/A speed=3.15x    frame=10204 fps= 76 q=-0.0 size=N/A time=00:07:05.59 bitrate=N/A speed=3.15x    frame=10243 fps= 76 q=-0.0 size=N/A time=00:07:07.21 bitrate=N/A speed=3.15x    frame=10274 fps= 75 q=-0.0 size=N/A time=00:07:08.51 bitrate=N/A speed=3.15x    frame=10322 fps= 76 q=-0.0 size=N/A time=00:07:10.51 bitrate=N/A speed=3.15x    frame=10362 fps= 76 q=-0.0 size=N/A time=00:07:12.18 bitrate=N/A speed=3.15x    frame=10400 fps= 76 q=-0.0 size=N/A time=00:07:13.76 bitrate=N/A speed=3.15x    frame=10434 fps= 75 q=-0.0 size=N/A time=00:07:15.18 bitrate=N/A speed=3.15x    frame=10478 fps= 76 q=-0.0 size=N/A time=00:07:17.01 bitrate=N/A speed=3.15x    frame=10517 fps= 76 q=-0.0 size=N/A time=00:07:18.64 bitrate=N/A speed=3.15x    frame=10555 fps= 76 q=-0.0 size=N/A time=00:07:20.23 bitrate=N/A speed=3.15x    frame=10589 fps= 75 q=-0.0 size=N/A time=00:07:21.64 bitrate=N/A speed=3.15x    frame=10631 fps= 76 q=-0.0 size=N/A time=00:07:23.40 bitrate=N/A speed=3.15x    frame=10673 fps= 76 q=-0.0 size=N/A time=00:07:25.15 bitrate=N/A speed=3.15x    frame=10705 fps= 75 q=-0.0 size=N/A time=00:07:26.48 bitrate=N/A speed=3.15x    frame=10751 fps= 76 q=-0.0 size=N/A time=00:07:28.40 bitrate=N/A speed=3.15x    frame=10786 fps= 76 q=-0.0 size=N/A time=00:07:29.86 bitrate=N/A speed=3.15x    frame=10829 fps= 76 q=-0.0 size=N/A time=00:07:31.65 bitrate=N/A speed=3.15x    frame=10869 fps= 76 q=-0.0 size=N/A time=00:07:33.32 bitrate=N/A speed=3.15x    frame=10907 fps= 76 q=-0.0 size=N/A time=00:07:34.91 bitrate=N/A speed=3.15x    frame=10947 fps= 76 q=-0.0 size=N/A time=00:07:36.58 bitrate=N/A speed=3.15x    frame=10986 fps= 76 q=-0.0 size=N/A time=00:07:38.20 bitrate=N/A speed=3.15x    frame=11025 fps= 76 q=-0.0 size=N/A time=00:07:39.83 bitrate=N/A speed=3.15x    frame=11065 fps= 76 q=-0.0 size=N/A time=00:07:41.50 bitrate=N/A speed=3.15x    frame=11097 fps= 75 q=-0.0 size=N/A time=00:07:42.83 bitrate=N/A speed=3.15x    frame=11143 fps= 76 q=-0.0 size=N/A time=00:07:44.75 bitrate=N/A speed=3.15x    frame=11174 fps= 75 q=-0.0 size=N/A time=00:07:46.04 bitrate=N/A speed=3.15x    frame=11221 fps= 76 q=-0.0 size=N/A time=00:07:48.00 bitrate=N/A speed=3.15x    frame=11255 fps= 76 q=-0.0 size=N/A time=00:07:49.42 bitrate=N/A speed=3.15x    frame=11293 fps= 76 q=-0.0 size=N/A time=00:07:51.01 bitrate=N/A speed=3.15x    frame=11337 fps= 76 q=-0.0 size=N/A time=00:07:52.84 bitrate=N/A speed=3.15x    frame=11374 fps= 76 q=-0.0 size=N/A time=00:07:54.39 bitrate=N/A speed=3.15x    frame=11403 fps= 75 q=-0.0 size=N/A time=00:07:55.60 bitrate=N/A speed=3.15x    frame=11448 fps= 75 q=-0.0 size=N/A time=00:07:57.47 bitrate=N/A speed=3.15x    frame=11492 fps= 76 q=-0.0 size=N/A time=00:07:59.31 bitrate=N/A speed=3.15x    frame=11529 fps= 76 q=-0.0 size=N/A time=00:08:00.85 bitrate=N/A speed=3.15x    frame=11569 fps= 76 q=-0.0 size=N/A time=00:08:02.52 bitrate=N/A speed=3.15x    frame=11608 fps= 76 q=-0.0 size=N/A time=00:08:04.15 bitrate=N/A speed=3.15x    frame=11648 fps= 76 q=-0.0 size=N/A time=00:08:05.81 bitrate=N/A speed=3.15x    frame=11687 fps= 76 q=-0.0 size=N/A time=00:08:07.44 bitrate=N/A speed=3.15x    frame=11718 fps= 75 q=-0.0 size=N/A time=00:08:08.73 bitrate=N/A speed=3.15x    frame=11754 fps= 75 q=-0.0 size=N/A time=00:08:10.23 bitrate=N/A speed=3.15x    frame=11804 fps= 76 q=-0.0 size=N/A time=00:08:12.32 bitrate=N/A speed=3.15x    frame=11843 fps= 76 q=-0.0 size=N/A time=00:08:13.95 bitrate=N/A speed=3.15x    frame=11876 fps= 75 q=-0.0 size=N/A time=00:08:15.32 bitrate=N/A speed=3.15x    frame=11922 fps= 76 q=-0.0 size=N/A time=00:08:17.24 bitrate=N/A speed=3.15x    frame=11957 fps= 76 q=-0.0 size=N/A time=00:08:18.70 bitrate=N/A speed=3.15x    frame=11984 fps= 75 q=-0.0 size=N/A time=00:08:19.83 bitrate=N/A speed=3.15x    frame=12039 fps= 76 q=-0.0 size=N/A time=00:08:22.12 bitrate=N/A speed=3.15x    frame=12079 fps= 76 q=-0.0 size=N/A time=00:08:23.79 bitrate=N/A speed=3.15x    frame=12115 fps= 76 q=-0.0 size=N/A time=00:08:25.29 bitrate=N/A speed=3.15x    frame=12157 fps= 76 q=-0.0 size=N/A time=00:08:27.04 bitrate=N/A speed=3.15x    frame=12195 fps= 76 q=-0.0 size=N/A time=00:08:28.63 bitrate=N/A speed=3.15x    frame=12236 fps= 76 q=-0.0 size=N/A time=00:08:30.34 bitrate=N/A speed=3.15x    frame=12265 fps= 75 q=-0.0 size=N/A time=00:08:31.55 bitrate=N/A speed=3.15x    frame=12315 fps= 76 q=-0.0 size=N/A time=00:08:33.63 bitrate=N/A speed=3.15x    frame=12351 fps= 76 q=-0.0 size=N/A time=00:08:35.13 bitrate=N/A speed=3.15x    frame=12394 fps= 76 q=-0.0 size=N/A time=00:08:36.93 bitrate=N/A speed=3.15x    frame=12432 fps= 76 q=-0.0 size=N/A time=00:08:38.51 bitrate=N/A speed=3.15x    frame=12472 fps= 76 q=-0.0 size=N/A time=00:08:40.18 bitrate=N/A speed=3.15x    frame=12511 fps= 76 q=-0.0 size=N/A time=00:08:41.81 bitrate=N/A speed=3.15x    frame=12538 fps= 75 q=-0.0 size=N/A time=00:08:42.93 bitrate=N/A speed=3.15x    frame=12589 fps= 76 q=-0.0 size=N/A time=00:08:45.06 bitrate=N/A speed=3.15x    frame=12630 fps= 76 q=-0.0 size=N/A time=00:08:46.77 bitrate=N/A speed=3.15x    frame=12659 fps= 76 q=-0.0 size=N/A time=00:08:47.98 bitrate=N/A speed=3.15x    frame=12708 fps= 76 q=-0.0 size=N/A time=00:08:50.02 bitrate=N/A speed=3.15x    frame=12747 fps= 76 q=-0.0 size=N/A time=00:08:51.65 bitrate=N/A speed=3.15x    frame=12786 fps= 76 q=-0.0 size=N/A time=00:08:53.28 bitrate=N/A speed=3.15x    frame=12825 fps= 76 q=-0.0 size=N/A time=00:08:54.90 bitrate=N/A speed=3.15x    frame=12865 fps= 76 q=-0.0 size=N/A time=00:08:56.57 bitrate=N/A speed=3.15x    frame=12903 fps= 76 q=-0.0 size=N/A time=00:08:58.16 bitrate=N/A speed=3.15x    frame=12942 fps= 76 q=-0.0 size=N/A time=00:08:59.78 bitrate=N/A speed=3.15x    frame=12982 fps= 76 q=-0.0 size=N/A time=00:09:01.45 bitrate=N/A speed=3.15x    frame=13022 fps= 76 q=-0.0 size=N/A time=00:09:03.12 bitrate=N/A speed=3.15x    frame=13060 fps= 76 q=-0.0 size=N/A time=00:09:04.71 bitrate=N/A speed=3.15x    frame=13100 fps= 76 q=-0.0 size=N/A time=00:09:06.37 bitrate=N/A speed=3.15x    frame=13138 fps= 76 q=-0.0 size=N/A time=00:09:07.96 bitrate=N/A speed=3.15x    frame=13177 fps= 76 q=-0.0 size=N/A time=00:09:09.59 bitrate=N/A speed=3.15x    frame=13216 fps= 76 q=-0.0 size=N/A time=00:09:11.21 bitrate=N/A speed=3.15x    frame=13256 fps= 76 q=-0.0 size=N/A time=00:09:12.88 bitrate=N/A speed=3.15x    frame=13294 fps= 76 q=-0.0 size=N/A time=00:09:14.47 bitrate=N/A speed=3.15x    frame=13335 fps= 76 q=-0.0 size=N/A time=00:09:16.18 bitrate=N/A speed=3.15x    frame=13375 fps= 76 q=-0.0 size=N/A time=00:09:17.84 bitrate=N/A speed=3.15x    frame=13415 fps= 76 q=-0.0 size=N/A time=00:09:19.51 bitrate=N/A speed=3.15x    frame=13455 fps= 76 q=-0.0 size=N/A time=00:09:21.18 bitrate=N/A speed=3.15x    frame=13495 fps= 76 q=-0.0 size=N/A time=00:09:22.85 bitrate=N/A speed=3.15x    frame=13533 fps= 76 q=-0.0 size=N/A time=00:09:24.43 bitrate=N/A speed=3.15x    frame=13573 fps= 76 q=-0.0 size=N/A time=00:09:26.10 bitrate=N/A speed=3.15x    frame=13605 fps= 76 q=-0.0 size=N/A time=00:09:27.44 bitrate=N/A speed=3.15x    frame=13651 fps= 76 q=-0.0 size=N/A time=00:09:29.36 bitrate=N/A speed=3.15x    frame=13679 fps= 76 q=-0.0 size=N/A time=00:09:30.52 bitrate=N/A speed=3.15x    frame=13729 fps= 76 q=-0.0 size=N/A time=00:09:32.61 bitrate=N/A speed=3.15x    frame=13768 fps= 76 q=-0.0 size=N/A time=00:09:34.24 bitrate=N/A speed=3.15x    frame=13795 fps= 76 q=-0.0 size=N/A time=00:09:35.36 bitrate=N/A speed=3.15x    frame=13846 fps= 76 q=-0.0 size=N/A time=00:09:37.49 bitrate=N/A speed=3.15x    frame=13886 fps= 76 q=-0.0 size=N/A time=00:09:39.16 bitrate=N/A speed=3.15x    frame=13918 fps= 76 q=-0.0 size=N/A time=00:09:40.49 bitrate=N/A speed=3.15x    frame=13964 fps= 76 q=-0.0 size=N/A time=00:09:42.41 bitrate=N/A speed=3.15x    frame=14001 fps= 76 q=-0.0 size=N/A time=00:09:43.95 bitrate=N/A speed=3.15x    frame=14042 fps= 76 q=-0.0 size=N/A time=00:09:45.66 bitrate=N/A speed=3.15x    frame=14082 fps= 76 q=-0.0 size=N/A time=00:09:47.33 bitrate=N/A speed=3.15x    frame=14120 fps= 76 q=-0.0 size=N/A time=00:09:48.92 bitrate=N/A speed=3.15x    frame=14159 fps= 76 q=-0.0 size=N/A time=00:09:50.54 bitrate=N/A speed=3.15x    frame=14187 fps= 76 q=-0.0 size=N/A time=00:09:51.71 bitrate=N/A speed=3.15x    frame=14234 fps= 76 q=-0.0 size=N/A time=00:09:53.67 bitrate=N/A speed=3.15x    frame=14275 fps= 76 q=-0.0 size=N/A time=00:09:55.38 bitrate=N/A speed=3.15x    frame=14314 fps= 76 q=-0.0 size=N/A time=00:09:57.01 bitrate=N/A speed=3.15x    frame=14352 fps= 76 q=-0.0 size=N/A time=00:09:58.59 bitrate=N/A speed=3.15x    frame=14390 fps= 76 q=-0.0 size=N/A time=00:10:00.18 bitrate=N/A speed=3.15x    frame=14423 fps= 76 q=-0.0 size=N/A time=00:10:01.55 bitrate=N/A speed=3.15x    frame=14468 fps= 76 q=-0.0 size=N/A time=00:10:03.43 bitrate=N/A speed=3.15x    frame=14492 fps= 76 q=-0.0 size=N/A time=00:10:04.43 bitrate=N/A speed=3.15x    frame=14538 fps= 76 q=-0.0 size=N/A time=00:10:06.35 bitrate=N/A speed=3.15x    frame=14584 fps= 76 q=-0.0 size=N/A time=00:10:08.27 bitrate=N/A speed=3.15x    frame=14613 fps= 76 q=-0.0 size=N/A time=00:10:09.48 bitrate=N/A speed=3.15x    frame=14659 fps= 76 q=-0.0 size=N/A time=00:10:11.40 bitrate=N/A speed=3.15x    frame=14686 fps= 76 q=-0.0 size=N/A time=00:10:12.52 bitrate=N/A speed=3.15x    frame=14739 fps= 76 q=-0.0 size=N/A time=00:10:14.73 bitrate=N/A speed=3.15x    frame=14778 fps= 76 q=-0.0 size=N/A time=00:10:16.36 bitrate=N/A speed=3.15x    frame=14817 fps= 76 q=-0.0 size=N/A time=00:10:17.99 bitrate=N/A speed=3.15x    frame=14858 fps= 76 q=-0.0 size=N/A time=00:10:19.70 bitrate=N/A speed=3.15x    frame=14897 fps= 76 q=-0.0 size=N/A time=00:10:21.32 bitrate=N/A speed=3.15x    frame=14936 fps= 76 q=-0.0 size=N/A time=00:10:22.95 bitrate=N/A speed=3.15x    frame=14976 fps= 76 q=-0.0 size=N/A time=00:10:24.62 bitrate=N/A speed=3.15x    frame=15014 fps= 76 q=-0.0 size=N/A time=00:10:26.20 bitrate=N/A speed=3.15x    frame=15051 fps= 76 q=-0.0 size=N/A time=00:10:27.75 bitrate=N/A speed=3.15x    frame=15093 fps= 76 q=-0.0 size=N/A time=00:10:29.50 bitrate=N/A speed=3.15x    frame=15130 fps= 76 q=-0.0 size=N/A time=00:10:31.04 bitrate=N/A speed=3.15x    frame=15171 fps= 76 q=-0.0 size=N/A time=00:10:32.75 bitrate=N/A speed=3.15x    frame=15211 fps= 76 q=-0.0 size=N/A time=00:10:34.42 bitrate=N/A speed=3.15x    frame=15250 fps= 76 q=-0.0 size=N/A time=00:10:36.05 bitrate=N/A speed=3.15x    frame=15289 fps= 76 q=-0.0 size=N/A time=00:10:37.67 bitrate=N/A speed=3.15x    frame=15328 fps= 76 q=-0.0 size=N/A time=00:10:39.30 bitrate=N/A speed=3.15x    frame=15368 fps= 76 q=-0.0 size=N/A time=00:10:40.97 bitrate=N/A speed=3.15x    frame=15406 fps= 76 q=-0.0 size=N/A time=00:10:42.55 bitrate=N/A speed=3.15x    frame=15438 fps= 76 q=-0.0 size=N/A time=00:10:43.89 bitrate=N/A speed=3.15x    frame=15484 fps= 76 q=-0.0 size=N/A time=00:10:45.81 bitrate=N/A speed=3.15x    frame=15522 fps= 76 q=-0.0 size=N/A time=00:10:47.39 bitrate=N/A speed=3.15x    frame=15562 fps= 76 q=-0.0 size=N/A time=00:10:49.06 bitrate=N/A speed=3.15x    frame=15600 fps= 76 q=-0.0 size=N/A time=00:10:50.65 bitrate=N/A speed=3.15x    frame=15634 fps= 76 q=-0.0 size=N/A time=00:10:52.06 bitrate=N/A speed=3.15x    frame=15678 fps= 76 q=-0.0 size=N/A time=00:10:53.90 bitrate=N/A speed=3.15x    frame=15715 fps= 76 q=-0.0 size=N/A time=00:10:55.44 bitrate=N/A speed=3.15x    frame=15757 fps= 76 q=-0.0 size=N/A time=00:10:57.19 bitrate=N/A speed=3.15x    frame=15794 fps= 76 q=-0.0 size=N/A time=00:10:58.74 bitrate=N/A speed=3.15x    frame=15835 fps= 76 q=-0.0 size=N/A time=00:11:00.45 bitrate=N/A speed=3.15x    frame=15874 fps= 76 q=-0.0 size=N/A time=00:11:02.07 bitrate=N/A speed=3.15x    frame=15911 fps= 76 q=-0.0 size=N/A time=00:11:03.62 bitrate=N/A speed=3.15x    frame=15952 fps= 76 q=-0.0 size=N/A time=00:11:05.33 bitrate=N/A speed=3.15x    frame=15990 fps= 76 q=-0.0 size=N/A time=00:11:06.91 bitrate=N/A speed=3.15x    frame=16022 fps= 76 q=-0.0 size=N/A time=00:11:08.25 bitrate=N/A speed=3.15x    frame=16069 fps= 76 q=-0.0 size=N/A time=00:11:10.21 bitrate=N/A speed=3.15x    frame=16103 fps= 76 q=-0.0 size=N/A time=00:11:11.62 bitrate=N/A speed=3.15x    frame=16147 fps= 76 q=-0.0 size=N/A time=00:11:13.46 bitrate=N/A speed=3.15x    frame=16184 fps= 76 q=-0.0 size=N/A time=00:11:15.00 bitrate=N/A speed=3.15x    frame=16223 fps= 76 q=-0.0 size=N/A time=00:11:16.63 bitrate=N/A speed=3.15x    frame=16260 fps= 76 q=-0.0 size=N/A time=00:11:18.17 bitrate=N/A speed=3.15x    frame=16304 fps= 76 q=-0.0 size=N/A time=00:11:20.01 bitrate=N/A speed=3.15x    frame=16338 fps= 76 q=-0.0 size=N/A time=00:11:21.43 bitrate=N/A speed=3.15x    frame=16383 fps= 76 q=-0.0 size=N/A time=00:11:23.30 bitrate=N/A speed=3.15x    frame=16415 fps= 76 q=-0.0 size=N/A time=00:11:24.64 bitrate=N/A speed=3.15x    frame=16447 fps= 76 q=-0.0 size=N/A time=00:11:25.97 bitrate=N/A speed=3.15x    frame=16496 fps= 76 q=-0.0 size=N/A time=00:11:28.02 bitrate=N/A speed=3.15x    frame=16538 fps= 76 q=-0.0 size=N/A time=00:11:29.77 bitrate=N/A speed=3.15x    frame=16579 fps= 76 q=-0.0 size=N/A time=00:11:31.48 bitrate=N/A speed=3.15x    frame=16617 fps= 76 q=-0.0 size=N/A time=00:11:33.06 bitrate=N/A speed=3.15x    frame=16657 fps= 76 q=-0.0 size=N/A time=00:11:34.73 bitrate=N/A speed=3.15x    frame=16693 fps= 76 q=-0.0 size=N/A time=00:11:36.23 bitrate=N/A speed=3.15x    frame=16735 fps= 76 q=-0.0 size=N/A time=00:11:37.98 bitrate=N/A speed=3.15x    frame=16773 fps= 76 q=-0.0 size=N/A time=00:11:39.57 bitrate=N/A speed=3.15x    frame=16809 fps= 76 q=-0.0 size=N/A time=00:11:41.07 bitrate=N/A speed=3.15x    frame=16854 fps= 76 q=-0.0 size=N/A time=00:11:42.95 bitrate=N/A speed=3.15x    frame=16893 fps= 76 q=-0.0 size=N/A time=00:11:44.57 bitrate=N/A speed=3.15x    frame=16926 fps= 76 q=-0.0 size=N/A time=00:11:45.95 bitrate=N/A speed=3.15x    frame=16971 fps= 76 q=-0.0 size=N/A time=00:11:47.83 bitrate=N/A speed=3.15x    frame=17004 fps= 76 q=-0.0 size=N/A time=00:11:49.20 bitrate=N/A speed=3.15x    frame=17044 fps= 76 q=-0.0 size=N/A time=00:11:50.87 bitrate=N/A speed=3.15x    frame=17087 fps= 76 q=-0.0 size=N/A time=00:11:52.67 bitrate=N/A speed=3.15x    frame=17123 fps= 76 q=-0.0 size=N/A time=00:11:54.17 bitrate=N/A speed=3.15x    frame=17164 fps= 76 q=-0.0 size=N/A time=00:11:55.88 bitrate=N/A speed=3.15x    frame=17202 fps= 76 q=-0.0 size=N/A time=00:11:57.46 bitrate=N/A speed=3.15x    frame=17241 fps= 76 q=-0.0 size=N/A time=00:11:59.09 bitrate=N/A speed=3.15x    frame=17279 fps= 76 q=-0.0 size=N/A time=00:12:00.67 bitrate=N/A speed=3.15x    frame=17320 fps= 76 q=-0.0 size=N/A time=00:12:02.38 bitrate=N/A speed=3.15x    frame=17353 fps= 76 q=-0.0 size=N/A time=00:12:03.76 bitrate=N/A speed=3.15x    frame=17398 fps= 76 q=-0.0 size=N/A time=00:12:05.64 bitrate=N/A speed=3.15x    frame=17436 fps= 76 q=-0.0 size=N/A time=00:12:07.22 bitrate=N/A speed=3.15x    frame=17475 fps= 76 q=-0.0 size=N/A time=00:12:08.85 bitrate=N/A speed=3.15x    frame=17513 fps= 76 q=-0.0 size=N/A time=00:12:10.43 bitrate=N/A speed=3.15x    frame=17547 fps= 76 q=-0.0 size=N/A time=00:12:11.85 bitrate=N/A speed=3.15x    frame=17591 fps= 76 q=-0.0 size=N/A time=00:12:13.69 bitrate=N/A speed=3.15x    frame=17630 fps= 76 q=-0.0 size=N/A time=00:12:15.31 bitrate=N/A speed=3.15x    frame=17668 fps= 76 q=-0.0 size=N/A time=00:12:16.90 bitrate=N/A speed=3.15x    frame=17706 fps= 76 q=-0.0 size=N/A time=00:12:18.48 bitrate=N/A speed=3.15x    frame=17734 fps= 76 q=-0.0 size=N/A time=00:12:19.65 bitrate=N/A speed=3.15x    frame=17779 fps= 76 q=-0.0 size=N/A time=00:12:21.53 bitrate=N/A speed=3.15x    frame=17813 fps= 76 q=-0.0 size=N/A time=00:12:22.95 bitrate=N/A speed=3.15x    frame=17856 fps= 76 q=-0.0 size=N/A time=00:12:24.74 bitrate=N/A speed=3.15x    frame=17901 fps= 76 q=-0.0 size=N/A time=00:12:26.62 bitrate=N/A speed=3.15x    frame=17941 fps= 76 q=-0.0 size=N/A time=00:12:28.28 bitrate=N/A speed=3.15x    frame=17982 fps= 76 q=-0.0 size=N/A time=00:12:29.99 bitrate=N/A speed=3.15x    frame=18020 fps= 76 q=-0.0 size=N/A time=00:12:31.58 bitrate=N/A speed=3.15x    frame=18059 fps= 76 q=-0.0 size=N/A time=00:12:33.21 bitrate=N/A speed=3.15x    frame=18091 fps= 76 q=-0.0 size=N/A time=00:12:34.54 bitrate=N/A speed=3.15x    frame=18138 fps= 76 q=-0.0 size=N/A time=00:12:36.50 bitrate=N/A speed=3.15x    frame=18176 fps= 76 q=-0.0 size=N/A time=00:12:38.09 bitrate=N/A speed=3.15x    frame=18216 fps= 76 q=-0.0 size=N/A time=00:12:39.75 bitrate=N/A speed=3.15x    frame=18255 fps= 76 q=-0.0 size=N/A time=00:12:41.38 bitrate=N/A speed=3.15x    frame=18294 fps= 76 q=-0.0 size=N/A time=00:12:43.01 bitrate=N/A speed=3.15x    frame=18327 fps= 76 q=-0.0 size=N/A time=00:12:44.38 bitrate=N/A speed=3.15x    frame=18373 fps= 76 q=-0.0 size=N/A time=00:12:46.30 bitrate=N/A speed=3.15x    frame=18413 fps= 76 q=-0.0 size=N/A time=00:12:47.97 bitrate=N/A speed=3.15x    frame=18444 fps= 76 q=-0.0 size=N/A time=00:12:49.26 bitrate=N/A speed=3.15x    frame=18490 fps= 76 q=-0.0 size=N/A time=00:12:51.18 bitrate=N/A speed=3.15x    frame=18524 fps= 76 q=-0.0 size=N/A time=00:12:52.60 bitrate=N/A speed=3.15x    frame=18569 fps= 76 q=-0.0 size=N/A time=00:12:54.48 bitrate=N/A speed=3.15x    frame=18609 fps= 76 q=-0.0 size=N/A time=00:12:56.15 bitrate=N/A speed=3.15x    frame=18648 fps= 76 q=-0.0 size=N/A time=00:12:57.77 bitrate=N/A speed=3.15x    frame=18684 fps= 76 q=-0.0 size=N/A time=00:12:59.27 bitrate=N/A speed=3.15x    frame=18726 fps= 76 q=-0.0 size=N/A time=00:13:01.03 bitrate=N/A speed=3.15x    frame=18765 fps= 76 q=-0.0 size=N/A time=00:13:02.65 bitrate=N/A speed=3.15x    frame=18804 fps= 76 q=-0.0 size=N/A time=00:13:04.28 bitrate=N/A speed=3.15x    frame=18842 fps= 76 q=-0.0 size=N/A time=00:13:05.86 bitrate=N/A speed=3.15x    frame=18882 fps= 76 q=-0.0 size=N/A time=00:13:07.53 bitrate=N/A speed=3.15x    frame=18914 fps= 76 q=-0.0 size=N/A time=00:13:08.87 bitrate=N/A speed=3.15x    frame=18960 fps= 76 q=-0.0 size=N/A time=00:13:10.79 bitrate=N/A speed=3.15x    frame=18987 fps= 76 q=-0.0 size=N/A time=00:13:11.91 bitrate=N/A speed=3.15x    frame=19036 fps= 76 q=-0.0 size=N/A time=00:13:13.95 bitrate=N/A speed=3.15x    frame=19075 fps= 76 q=-0.0 size=N/A time=00:13:15.58 bitrate=N/A speed=3.15x    frame=19115 fps= 76 q=-0.0 size=N/A time=00:13:17.25 bitrate=N/A speed=3.15x    frame=19153 fps= 76 q=-0.0 size=N/A time=00:13:18.83 bitrate=N/A speed=3.15x    frame=19182 fps= 76 q=-0.0 size=N/A time=00:13:20.04 bitrate=N/A speed=3.15x    frame=19231 fps= 76 q=-0.0 size=N/A time=00:13:22.09 bitrate=N/A speed=3.15x    frame=19268 fps= 76 q=-0.0 size=N/A time=00:13:23.63 bitrate=N/A speed=3.15x    frame=19310 fps= 76 q=-0.0 size=N/A time=00:13:25.38 bitrate=N/A speed=3.15x    frame=19348 fps= 76 q=-0.0 size=N/A time=00:13:26.97 bitrate=N/A speed=3.15x    frame=19385 fps= 76 q=-0.0 size=N/A time=00:13:28.51 bitrate=N/A speed=3.15x    frame=19421 fps= 76 q=-0.0 size=N/A time=00:13:30.01 bitrate=N/A speed=3.15x    frame=19467 fps= 76 q=-0.0 size=N/A time=00:13:31.93 bitrate=N/A speed=3.15x    frame=19504 fps= 76 q=-0.0 size=N/A time=00:13:33.47 bitrate=N/A speed=3.15x    frame=19543 fps= 76 q=-0.0 size=N/A time=00:13:35.10 bitrate=N/A speed=3.15x    frame=19575 fps= 76 q=-0.0 size=N/A time=00:13:36.44 bitrate=N/A speed=3.15x    frame=19622 fps= 76 q=-0.0 size=N/A time=00:13:38.40 bitrate=N/A speed=3.15x    frame=19660 fps= 76 q=-0.0 size=N/A time=00:13:39.98 bitrate=N/A speed=3.15x    frame=19700 fps= 76 q=-0.0 size=N/A time=00:13:41.65 bitrate=N/A speed=3.15x    frame=19739 fps= 76 q=-0.0 size=N/A time=00:13:43.28 bitrate=N/A speed=3.15x    frame=19778 fps= 76 q=-0.0 size=N/A time=00:13:44.90 bitrate=N/A speed=3.15x    frame=19817 fps= 76 q=-0.0 size=N/A time=00:13:46.53 bitrate=N/A speed=3.15x    frame=19856 fps= 76 q=-0.0 size=N/A time=00:13:48.16 bitrate=N/A speed=3.15x    frame=19889 fps= 76 q=-0.0 size=N/A time=00:13:49.53 bitrate=N/A speed=3.15x    frame=19935 fps= 76 q=-0.0 size=N/A time=00:13:51.45 bitrate=N/A speed=3.15x    frame=19971 fps= 76 q=-0.0 size=N/A time=00:13:52.95 bitrate=N/A speed=3.15x    frame=20013 fps= 76 q=-0.0 size=N/A time=00:13:54.70 bitrate=N/A speed=3.15x    frame=20051 fps= 76 q=-0.0 size=N/A time=00:13:56.29 bitrate=N/A speed=3.15x    frame=20084 fps= 76 q=-0.0 size=N/A time=00:13:57.67 bitrate=N/A speed=3.15x    frame=20127 fps= 76 q=-0.0 size=N/A time=00:13:59.46 bitrate=N/A speed=3.15x    frame=20159 fps= 76 q=-0.0 size=N/A time=00:14:00.79 bitrate=N/A speed=3.15x    frame=20205 fps= 76 q=-0.0 size=N/A time=00:14:02.71 bitrate=N/A speed=3.15x    frame=20245 fps= 76 q=-0.0 size=N/A time=00:14:04.38 bitrate=N/A speed=3.15x    frame=20281 fps= 76 q=-0.0 size=N/A time=00:14:05.88 bitrate=N/A speed=3.15x    frame=20323 fps= 76 q=-0.0 size=N/A time=00:14:07.63 bitrate=N/A speed=3.15x    frame=20362 fps= 76 q=-0.0 size=N/A time=00:14:09.26 bitrate=N/A speed=3.15x    frame=20401 fps= 76 q=-0.0 size=N/A time=00:14:10.89 bitrate=N/A speed=3.15x    frame=20438 fps= 76 q=-0.0 size=N/A time=00:14:12.43 bitrate=N/A speed=3.15x    frame=20474 fps= 76 q=-0.0 size=N/A time=00:14:13.93 bitrate=N/A speed=3.15x    frame=20516 fps= 76 q=-0.0 size=N/A time=00:14:15.68 bitrate=N/A speed=3.15x    frame=20548 fps= 76 q=-0.0 size=N/A time=00:14:17.02 bitrate=N/A speed=3.15x    frame=20593 fps= 76 q=-0.0 size=N/A time=00:14:18.89 bitrate=N/A speed=3.15x    frame=20633 fps= 76 q=-0.0 size=N/A time=00:14:20.56 bitrate=N/A speed=3.15x    frame=20665 fps= 76 q=-0.0 size=N/A time=00:14:21.90 bitrate=N/A speed=3.15x    frame=20711 fps= 76 q=-0.0 size=N/A time=00:14:23.82 bitrate=N/A speed=3.15x    frame=20744 fps= 76 q=-0.0 size=N/A time=00:14:25.19 bitrate=N/A speed=3.15x    frame=20789 fps= 76 q=-0.0 size=N/A time=00:14:27.07 bitrate=N/A speed=3.15x    frame=20826 fps= 76 q=-0.0 size=N/A time=00:14:28.61 bitrate=N/A speed=3.15x    frame=20865 fps= 76 q=-0.0 size=N/A time=00:14:30.24 bitrate=N/A speed=3.15x    frame=20904 fps= 76 q=-0.0 size=N/A time=00:14:31.87 bitrate=N/A speed=3.15x    frame=20942 fps= 76 q=-0.0 size=N/A time=00:14:33.45 bitrate=N/A speed=3.15x    frame=20981 fps= 76 q=-0.0 size=N/A time=00:14:35.08 bitrate=N/A speed=3.15x    frame=21016 fps= 76 q=-0.0 size=N/A time=00:14:36.54 bitrate=N/A speed=3.15x    frame=21058 fps= 76 q=-0.0 size=N/A time=00:14:38.29 bitrate=N/A speed=3.15x    frame=21096 fps= 76 q=-0.0 size=N/A time=00:14:39.87 bitrate=N/A speed=3.15x    frame=21134 fps= 76 q=-0.0 size=N/A time=00:14:41.46 bitrate=N/A speed=3.15x    frame=21173 fps= 76 q=-0.0 size=N/A time=00:14:43.09 bitrate=N/A speed=3.15x    frame=21212 fps= 76 q=-0.0 size=N/A time=00:14:44.71 bitrate=N/A speed=3.15x    frame=21251 fps= 76 q=-0.0 size=N/A time=00:14:46.34 bitrate=N/A speed=3.15x    frame=21290 fps= 76 q=-0.0 size=N/A time=00:14:47.97 bitrate=N/A speed=3.15x    frame=21329 fps= 76 q=-0.0 size=N/A time=00:14:49.59 bitrate=N/A speed=3.15x    frame=21368 fps= 76 q=-0.0 size=N/A time=00:14:51.22 bitrate=N/A speed=3.15x    frame=21406 fps= 76 q=-0.0 size=N/A time=00:14:52.80 bitrate=N/A speed=3.15x    frame=21442 fps= 76 q=-0.0 size=N/A time=00:14:54.31 bitrate=N/A speed=3.15x    frame=21484 fps= 76 q=-0.0 size=N/A time=00:14:56.06 bitrate=N/A speed=3.15x    frame=21523 fps= 76 q=-0.0 size=N/A time=00:14:57.68 bitrate=N/A speed=3.15x    frame=21563 fps= 76 q=-0.0 size=N/A time=00:14:59.35 bitrate=N/A speed=3.15x    frame=21601 fps= 76 q=-0.0 size=N/A time=00:15:00.94 bitrate=N/A speed=3.15x    frame=21637 fps= 76 q=-0.0 size=N/A time=00:15:02.44 bitrate=N/A speed=3.15x    frame=21667 fps= 76 q=-0.0 size=N/A time=00:15:03.69 bitrate=N/A speed=3.15x    frame=21719 fps= 76 q=-0.0 size=N/A time=00:15:05.86 bitrate=N/A speed=3.15x    frame=21756 fps= 76 q=-0.0 size=N/A time=00:15:07.40 bitrate=N/A speed=3.15x    frame=21797 fps= 76 q=-0.0 size=N/A time=00:15:09.11 bitrate=N/A speed=3.15x    frame=21835 fps= 76 q=-0.0 size=N/A time=00:15:10.70 bitrate=N/A speed=3.15x    frame=21863 fps= 76 q=-0.0 size=N/A time=00:15:11.86 bitrate=N/A speed=3.15x    frame=21908 fps= 76 q=-0.0 size=N/A time=00:15:13.74 bitrate=N/A speed=3.15x    frame=21949 fps= 76 q=-0.0 size=N/A time=00:15:15.45 bitrate=N/A speed=3.15x    frame=21994 fps= 76 q=-0.0 size=N/A time=00:15:17.33 bitrate=N/A speed=3.15x    frame=22028 fps= 76 q=-0.0 size=N/A time=00:15:18.75 bitrate=N/A speed=3.15x    frame=22066 fps= 76 q=-0.0 size=N/A time=00:15:20.33 bitrate=N/A speed=3.15x    frame=22110 fps= 76 q=-0.0 size=N/A time=00:15:22.17 bitrate=N/A speed=3.15x    frame=22148 fps= 76 q=-0.0 size=N/A time=00:15:23.75 bitrate=N/A speed=3.15x    frame=22182 fps= 76 q=-0.0 size=N/A time=00:15:25.17 bitrate=N/A speed=3.15x    frame=22226 fps= 76 q=-0.0 size=N/A time=00:15:27.00 bitrate=N/A speed=3.15x    frame=22264 fps= 76 q=-0.0 size=N/A time=00:15:28.59 bitrate=N/A speed=3.15x    frame=22304 fps= 76 q=-0.0 size=N/A time=00:15:30.26 bitrate=N/A speed=3.15x    frame=22343 fps= 76 q=-0.0 size=N/A time=00:15:31.88 bitrate=N/A speed=3.15x    frame=22377 fps= 76 q=-0.0 size=N/A time=00:15:33.30 bitrate=N/A speed=3.15x    frame=22421 fps= 76 q=-0.0 size=N/A time=00:15:35.14 bitrate=N/A speed=3.15x    frame=22460 fps= 76 q=-0.0 size=N/A time=00:15:36.76 bitrate=N/A speed=3.15x    frame=22494 fps= 76 q=-0.0 size=N/A time=00:15:38.18 bitrate=N/A speed=3.15x    frame=22538 fps= 76 q=-0.0 size=N/A time=00:15:40.02 bitrate=N/A speed=3.15x    frame=22578 fps= 76 q=-0.0 size=N/A time=00:15:41.69 bitrate=N/A speed=3.15x    frame=22616 fps= 76 q=-0.0 size=N/A time=00:15:43.27 bitrate=N/A speed=3.15x    frame=22656 fps= 76 q=-0.0 size=N/A time=00:15:44.94 bitrate=N/A speed=3.15x    frame=22691 fps= 76 q=-0.0 size=N/A time=00:15:46.40 bitrate=N/A speed=3.15x    frame=22732 fps= 76 q=-0.0 size=N/A time=00:15:48.11 bitrate=N/A speed=3.15x    frame=22769 fps= 76 q=-0.0 size=N/A time=00:15:49.65 bitrate=N/A speed=3.15x    frame=22809 fps= 76 q=-0.0 size=N/A time=00:15:51.32 bitrate=N/A speed=3.15x    frame=22845 fps= 76 q=-0.0 size=N/A time=00:15:52.82 bitrate=N/A speed=3.15x    frame=22886 fps= 76 q=-0.0 size=N/A time=00:15:54.53 bitrate=N/A speed=3.15x    frame=22924 fps= 76 q=-0.0 size=N/A time=00:15:56.12 bitrate=N/A speed=3.15x    frame=22959 fps= 76 q=-0.0 size=N/A time=00:15:57.58 bitrate=N/A speed=3.15x    frame=23002 fps= 76 q=-0.0 size=N/A time=00:15:59.37 bitrate=N/A speed=3.15x    frame=23041 fps= 76 q=-0.0 size=N/A time=00:16:01.00 bitrate=N/A speed=3.15x    frame=23068 fps= 76 q=-0.0 size=N/A time=00:16:02.12 bitrate=N/A speed=3.15x    frame=23117 fps= 76 q=-0.0 size=N/A time=00:16:04.17 bitrate=N/A speed=3.15x    frame=23155 fps= 76 q=-0.0 size=N/A time=00:16:05.75 bitrate=N/A speed=3.15x    frame=23188 fps= 76 q=-0.0 size=N/A time=00:16:07.13 bitrate=N/A speed=3.15x    frame=23233 fps= 76 q=-0.0 size=N/A time=00:16:09.00 bitrate=N/A speed=3.15x    frame=23271 fps= 76 q=-0.0 size=N/A time=00:16:10.59 bitrate=N/A speed=3.15x    frame=23305 fps= 76 q=-0.0 size=N/A time=00:16:12.01 bitrate=N/A speed=3.15x    frame=23348 fps= 76 q=-0.0 size=N/A time=00:16:13.80 bitrate=N/A speed=3.15x    frame=23377 fps= 76 q=-0.0 size=N/A time=00:16:15.01 bitrate=N/A speed=3.15x    frame=23426 fps= 76 q=-0.0 size=N/A time=00:16:17.05 bitrate=N/A speed=3.15x    frame=23465 fps= 76 q=-0.0 size=N/A time=00:16:18.68 bitrate=N/A speed=3.15x    frame=23503 fps= 76 q=-0.0 size=N/A time=00:16:20.27 bitrate=N/A speed=3.15x    frame=23542 fps= 76 q=-0.0 size=N/A time=00:16:21.89 bitrate=N/A speed=3.15x    frame=23580 fps= 76 q=-0.0 size=N/A time=00:16:23.48 bitrate=N/A speed=3.15x    frame=23620 fps= 76 q=-0.0 size=N/A time=00:16:25.15 bitrate=N/A speed=3.15x    frame=23660 fps= 76 q=-0.0 size=N/A time=00:16:26.81 bitrate=N/A speed=3.15x    frame=23700 fps= 76 q=-0.0 size=N/A time=00:16:28.48 bitrate=N/A speed=3.15x    frame=23736 fps= 76 q=-0.0 size=N/A time=00:16:29.98 bitrate=N/A speed=3.15x    frame=23778 fps= 76 q=-0.0 size=N/A time=00:16:31.74 bitrate=N/A speed=3.15x    frame=23814 fps= 76 q=-0.0 size=N/A time=00:16:33.24 bitrate=N/A speed=3.15x    frame=23850 fps= 76 q=-0.0 size=N/A time=00:16:34.74 bitrate=N/A speed=3.15x    frame=23895 fps= 76 q=-0.0 size=N/A time=00:16:36.62 bitrate=N/A speed=3.15x    frame=23935 fps= 76 q=-0.0 size=N/A time=00:16:38.28 bitrate=N/A speed=3.15x    frame=23966 fps= 76 q=-0.0 size=N/A time=00:16:39.58 bitrate=N/A speed=3.15x    frame=24013 fps= 76 q=-0.0 size=N/A time=00:16:41.54 bitrate=N/A speed=3.15x    frame=24050 fps= 76 q=-0.0 size=N/A time=00:16:43.08 bitrate=N/A speed=3.15x    frame=24083 fps= 76 q=-0.0 size=N/A time=00:16:44.46 bitrate=N/A speed=3.15x    frame=24127 fps= 76 q=-0.0 size=N/A time=00:16:46.29 bitrate=N/A speed=3.15x    frame=24164 fps= 76 q=-0.0 size=N/A time=00:16:47.84 bitrate=N/A speed=3.15x    frame=24205 fps= 76 q=-0.0 size=N/A time=00:16:49.55 bitrate=N/A speed=3.15x    frame=24243 fps= 76 q=-0.0 size=N/A time=00:16:51.13 bitrate=N/A speed=3.15x    frame=24283 fps= 76 q=-0.0 size=N/A time=00:16:52.80 bitrate=N/A speed=3.15x    frame=24321 fps= 76 q=-0.0 size=N/A time=00:16:54.38 bitrate=N/A speed=3.15x    frame=24361 fps= 76 q=-0.0 size=N/A time=00:16:56.05 bitrate=N/A speed=3.15x    frame=24399 fps= 76 q=-0.0 size=N/A time=00:16:57.64 bitrate=N/A speed=3.15x    frame=24439 fps= 76 q=-0.0 size=N/A time=00:16:59.30 bitrate=N/A speed=3.15x    frame=24470 fps= 76 q=-0.0 size=N/A time=00:17:00.60 bitrate=N/A speed=3.15x    frame=24516 fps= 76 q=-0.0 size=N/A time=00:17:02.52 bitrate=N/A speed=3.15x    frame=24554 fps= 76 q=-0.0 size=N/A time=00:17:04.10 bitrate=N/A speed=3.15x    frame=24594 fps= 76 q=-0.0 size=N/A time=00:17:05.77 bitrate=N/A speed=3.15x    frame=24633 fps= 76 q=-0.0 size=N/A time=00:17:07.40 bitrate=N/A speed=3.15x    frame=24664 fps= 76 q=-0.0 size=N/A time=00:17:08.69 bitrate=N/A speed=3.15x    frame=24710 fps= 76 q=-0.0 size=N/A time=00:17:10.61 bitrate=N/A speed=3.15x    frame=24745 fps= 76 q=-0.0 size=N/A time=00:17:12.07 bitrate=N/A speed=3.15x    frame=24789 fps= 76 q=-0.0 size=N/A time=00:17:13.90 bitrate=N/A speed=3.15x    frame=24826 fps= 76 q=-0.0 size=N/A time=00:17:15.45 bitrate=N/A speed=3.15x    frame=24866 fps= 76 q=-0.0 size=N/A time=00:17:17.11 bitrate=N/A speed=3.15x    frame=24904 fps= 76 q=-0.0 size=N/A time=00:17:18.70 bitrate=N/A speed=3.15x    frame=24944 fps= 76 q=-0.0 size=N/A time=00:17:20.37 bitrate=N/A speed=3.15x    frame=24982 fps= 76 q=-0.0 size=N/A time=00:17:21.95 bitrate=N/A speed=3.15x    frame=25018 fps= 76 q=-0.0 size=N/A time=00:17:23.45 bitrate=N/A speed=3.15x    frame=25060 fps= 76 q=-0.0 size=N/A time=00:17:25.21 bitrate=N/A speed=3.15x    frame=25092 fps= 76 q=-0.0 size=N/A time=00:17:26.54 bitrate=N/A speed=3.15x    frame=25137 fps= 76 q=-0.0 size=N/A time=00:17:28.42 bitrate=N/A speed=3.15x    frame=25178 fps= 76 q=-0.0 size=N/A time=00:17:30.13 bitrate=N/A speed=3.15x    frame=25205 fps= 76 q=-0.0 size=N/A time=00:17:31.25 bitrate=N/A speed=3.15x    frame=25242 fps= 76 q=-0.0 size=N/A time=00:17:32.80 bitrate=N/A speed=3.15x    frame=25287 fps= 76 q=-0.0 size=N/A time=00:17:34.67 bitrate=N/A speed=3.15x    frame=25334 fps= 76 q=-0.0 size=N/A time=00:17:36.63 bitrate=N/A speed=3.15x    frame=25370 fps= 76 q=-0.0 size=N/A time=00:17:38.14 bitrate=N/A speed=3.15x    frame=25412 fps= 76 q=-0.0 size=N/A time=00:17:39.89 bitrate=N/A speed=3.15x    frame=25451 fps= 76 q=-0.0 size=N/A time=00:17:41.51 bitrate=N/A speed=3.15x    frame=25485 fps= 76 q=-0.0 size=N/A time=00:17:42.93 bitrate=N/A speed=3.15x    frame=25525 fps= 76 q=-0.0 size=N/A time=00:17:44.60 bitrate=N/A speed=3.15x    frame=25569 fps= 76 q=-0.0 size=N/A time=00:17:46.44 bitrate=N/A speed=3.15x    frame=25603 fps= 76 q=-0.0 size=N/A time=00:17:47.85 bitrate=N/A speed=3.15x    frame=25646 fps= 76 q=-0.0 size=N/A time=00:17:49.65 bitrate=N/A speed=3.15x    frame=25685 fps= 76 q=-0.0 size=N/A time=00:17:51.27 bitrate=N/A speed=3.15x    frame=25725 fps= 76 q=-0.0 size=N/A time=00:17:52.94 bitrate=N/A speed=3.15x    frame=25764 fps= 76 q=-0.0 size=N/A time=00:17:54.57 bitrate=N/A speed=3.15x    frame=25800 fps= 76 q=-0.0 size=N/A time=00:17:56.07 bitrate=N/A speed=3.15x    frame=25842 fps= 76 q=-0.0 size=N/A time=00:17:57.82 bitrate=N/A speed=3.15x    frame=25881 fps= 76 q=-0.0 size=N/A time=00:17:59.45 bitrate=N/A speed=3.15x    frame=25919 fps= 76 q=-0.0 size=N/A time=00:18:01.03 bitrate=N/A speed=3.15x    frame=25959 fps= 76 q=-0.0 size=N/A time=00:18:02.70 bitrate=N/A speed=3.15x    frame=25993 fps= 76 q=-0.0 size=N/A time=00:18:04.12 bitrate=N/A speed=3.15x    frame=26034 fps= 76 q=-0.0 size=N/A time=00:18:05.83 bitrate=N/A speed=3.15x    frame=26077 fps= 76 q=-0.0 size=N/A time=00:18:07.62 bitrate=N/A speed=3.15x    frame=26117 fps= 76 q=-0.0 size=N/A time=00:18:09.29 bitrate=N/A speed=3.15x    frame=26156 fps= 76 q=-0.0 size=N/A time=00:18:10.92 bitrate=N/A speed=3.15x    frame=26196 fps= 76 q=-0.0 size=N/A time=00:18:12.59 bitrate=N/A speed=3.15x    frame=26235 fps= 76 q=-0.0 size=N/A time=00:18:14.21 bitrate=N/A speed=3.15x    frame=26273 fps= 76 q=-0.0 size=N/A time=00:18:15.80 bitrate=N/A speed=3.15x    frame=26311 fps= 76 q=-0.0 size=N/A time=00:18:17.38 bitrate=N/A speed=3.15x    frame=26347 fps= 76 q=-0.0 size=N/A time=00:18:18.88 bitrate=N/A speed=3.15x    frame=26380 fps= 76 q=-0.0 size=N/A time=00:18:20.26 bitrate=N/A speed=3.15x    frame=26426 fps= 76 q=-0.0 size=N/A time=00:18:22.18 bitrate=N/A speed=3.15x    frame=26461 fps= 76 q=-0.0 size=N/A time=00:18:23.64 bitrate=N/A speed=3.15x    frame=26504 fps= 76 q=-0.0 size=N/A time=00:18:25.43 bitrate=N/A speed=3.15x    frame=26542 fps= 76 q=-0.0 size=N/A time=00:18:27.02 bitrate=N/A speed=3.15x    frame=26583 fps= 76 q=-0.0 size=N/A time=00:18:28.73 bitrate=N/A speed=3.15x    frame=26622 fps= 76 q=-0.0 size=N/A time=00:18:30.35 bitrate=N/A speed=3.15x    frame=26660 fps= 76 q=-0.0 size=N/A time=00:18:31.94 bitrate=N/A speed=3.15x    frame=26696 fps= 76 q=-0.0 size=N/A time=00:18:33.44 bitrate=N/A speed=3.15x    frame=26737 fps= 76 q=-0.0 size=N/A time=00:18:35.15 bitrate=N/A speed=3.15x    frame=26776 fps= 76 q=-0.0 size=N/A time=00:18:36.78 bitrate=N/A speed=3.15x    frame=26814 fps= 76 q=-0.0 size=N/A time=00:18:38.36 bitrate=N/A speed=3.15x    frame=26853 fps= 76 q=-0.0 size=N/A time=00:18:39.99 bitrate=N/A speed=3.15x    frame=26893 fps= 76 q=-0.0 size=N/A time=00:18:41.66 bitrate=N/A speed=3.15x    frame=26927 fps= 76 q=-0.0 size=N/A time=00:18:43.08 bitrate=N/A speed=3.15x    frame=26971 fps= 76 q=-0.0 size=N/A time=00:18:44.91 bitrate=N/A speed=3.15x    frame=27010 fps= 76 q=-0.0 size=N/A time=00:18:46.54 bitrate=N/A speed=3.15x    frame=27049 fps= 76 q=-0.0 size=N/A time=00:18:48.16 bitrate=N/A speed=3.15x    frame=27087 fps= 76 q=-0.0 size=N/A time=00:18:49.75 bitrate=N/A speed=3.15x    frame=27126 fps= 76 q=-0.0 size=N/A time=00:18:51.38 bitrate=N/A speed=3.15x    frame=27165 fps= 76 q=-0.0 size=N/A time=00:18:53.00 bitrate=N/A speed=3.15x    frame=27204 fps= 76 q=-0.0 size=N/A time=00:18:54.63 bitrate=N/A speed=3.15x    frame=27240 fps= 76 q=-0.0 size=N/A time=00:18:56.13 bitrate=N/A speed=3.15x    frame=27283 fps= 76 q=-0.0 size=N/A time=00:18:57.92 bitrate=N/A speed=3.15x    frame=27323 fps= 76 q=-0.0 size=N/A time=00:18:59.59 bitrate=N/A speed=3.15x    frame=27361 fps= 76 q=-0.0 size=N/A time=00:19:01.18 bitrate=N/A speed=3.15x    frame=27395 fps= 76 q=-0.0 size=N/A time=00:19:02.59 bitrate=N/A speed=3.15x    frame=27441 fps= 76 q=-0.0 size=N/A time=00:19:04.51 bitrate=N/A speed=3.15x    frame=27475 fps= 76 q=-0.0 size=N/A time=00:19:05.93 bitrate=N/A speed=3.15x    frame=27517 fps= 76 q=-0.0 size=N/A time=00:19:07.72 bitrate=N/A speed=3.15x    frame=27550 fps= 76 q=-0.0 size=N/A time=00:19:09.06 bitrate=N/A speed=3.15x    frame=27593 fps= 76 q=-0.0 size=N/A time=00:19:10.85 bitrate=N/A speed=3.15x    frame=27630 fps= 76 q=-0.0 size=N/A time=00:19:12.40 bitrate=N/A speed=3.15x    frame=27672 fps= 76 q=-0.0 size=N/A time=00:19:14.15 bitrate=N/A speed=3.15x    frame=27711 fps= 76 q=-0.0 size=N/A time=00:19:15.77 bitrate=N/A speed=3.15x    frame=27740 fps= 76 q=-0.0 size=N/A time=00:19:16.98 bitrate=N/A speed=3.15x    frame=27789 fps= 76 q=-0.0 size=N/A time=00:19:19.03 bitrate=N/A speed=3.15x    frame=27830 fps= 76 q=-0.0 size=N/A time=00:19:20.74 bitrate=N/A speed=3.15x    frame=27862 fps= 76 q=-0.0 size=N/A time=00:19:22.07 bitrate=N/A speed=3.15x    frame=27898 fps= 76 q=-0.0 size=N/A time=00:19:23.57 bitrate=N/A speed=3.15x    frame=27946 fps= 76 q=-0.0 size=N/A time=00:19:25.58 bitrate=N/A speed=3.15x    frame=27982 fps= 76 q=-0.0 size=N/A time=00:19:27.08 bitrate=N/A speed=3.15x    frame=28018 fps= 76 q=-0.0 size=N/A time=00:19:28.58 bitrate=N/A speed=3.15x    frame=28062 fps= 76 q=-0.0 size=N/A time=00:19:30.41 bitrate=N/A speed=3.15x    frame=28099 fps= 76 q=-0.0 size=N/A time=00:19:31.96 bitrate=N/A speed=3.15x    frame=28139 fps= 76 q=-0.0 size=N/A time=00:19:33.63 bitrate=N/A speed=3.15x    frame=28177 fps= 76 q=-0.0 size=N/A time=00:19:35.21 bitrate=N/A speed=3.15x    frame=28217 fps= 76 q=-0.0 size=N/A time=00:19:36.88 bitrate=N/A speed=3.15x    frame=28255 fps= 76 q=-0.0 size=N/A time=00:19:38.46 bitrate=N/A speed=3.15x    frame=28294 fps= 76 q=-0.0 size=N/A time=00:19:40.09 bitrate=N/A speed=3.15x    frame=28332 fps= 76 q=-0.0 size=N/A time=00:19:41.68 bitrate=N/A speed=3.15x    frame=28372 fps= 76 q=-0.0 size=N/A time=00:19:43.34 bitrate=N/A speed=3.15x    frame=28411 fps= 76 q=-0.0 size=N/A time=00:19:44.97 bitrate=N/A speed=3.15x    frame=28450 fps= 76 q=-0.0 size=N/A time=00:19:46.60 bitrate=N/A speed=3.15x    frame=28489 fps= 76 q=-0.0 size=N/A time=00:19:48.22 bitrate=N/A speed=3.15x    frame=28528 fps= 76 q=-0.0 size=N/A time=00:19:49.85 bitrate=N/A speed=3.15x    frame=28567 fps= 76 q=-0.0 size=N/A time=00:19:51.48 bitrate=N/A speed=3.15x    frame=28606 fps= 76 q=-0.0 size=N/A time=00:19:53.10 bitrate=N/A speed=3.15x    frame=28644 fps= 76 q=-0.0 size=N/A time=00:19:54.69 bitrate=N/A speed=3.15x    frame=28683 fps= 76 q=-0.0 size=N/A time=00:19:56.32 bitrate=N/A speed=3.15x    frame=28721 fps= 76 q=-0.0 size=N/A time=00:19:57.90 bitrate=N/A speed=3.15x    frame=28760 fps= 76 q=-0.0 size=N/A time=00:19:59.53 bitrate=N/A speed=3.15x    frame=28791 fps= 76 q=-0.0 size=N/A time=00:20:00.82 bitrate=N/A speed=3.15x    frame=28837 fps= 76 q=-0.0 size=N/A time=00:20:02.74 bitrate=N/A speed=3.15x    frame=28875 fps= 76 q=-0.0 size=N/A time=00:20:04.32 bitrate=N/A speed=3.15x    frame=28914 fps= 76 q=-0.0 size=N/A time=00:20:05.95 bitrate=N/A speed=3.15x    frame=28954 fps= 76 q=-0.0 size=N/A time=00:20:07.62 bitrate=N/A speed=3.15x    frame=28992 fps= 76 q=-0.0 size=N/A time=00:20:09.20 bitrate=N/A speed=3.15x    frame=29031 fps= 76 q=-0.0 size=N/A time=00:20:10.83 bitrate=N/A speed=3.15x    frame=29069 fps= 76 q=-0.0 size=N/A time=00:20:12.41 bitrate=N/A speed=3.15x    frame=29105 fps= 76 q=-0.0 size=N/A time=00:20:13.92 bitrate=N/A speed=3.15x    frame=29146 fps= 76 q=-0.0 size=N/A time=00:20:15.63 bitrate=N/A speed=3.15x    frame=29184 fps= 76 q=-0.0 size=N/A time=00:20:17.21 bitrate=N/A speed=3.15x    frame=29215 fps= 76 q=-0.0 size=N/A time=00:20:18.50 bitrate=N/A speed=3.15x    frame=29261 fps= 76 q=-0.0 size=N/A time=00:20:20.42 bitrate=N/A speed=3.15x    frame=29293 fps= 76 q=-0.0 size=N/A time=00:20:21.76 bitrate=N/A speed=3.15x    frame=29338 fps= 76 q=-0.0 size=N/A time=00:20:23.63 bitrate=N/A speed=3.15x    frame=29375 fps= 76 q=-0.0 size=N/A time=00:20:25.18 bitrate=N/A speed=3.15x    frame=29416 fps= 76 q=-0.0 size=N/A time=00:20:26.89 bitrate=N/A speed=3.15x    frame=29456 fps= 76 q=-0.0 size=N/A time=00:20:28.56 bitrate=N/A speed=3.15x    frame=29494 fps= 76 q=-0.0 size=N/A time=00:20:30.14 bitrate=N/A speed=3.15x    frame=29534 fps= 76 q=-0.0 size=N/A time=00:20:31.81 bitrate=N/A speed=3.15x    frame=29573 fps= 76 q=-0.0 size=N/A time=00:20:33.44 bitrate=N/A speed=3.15x    frame=29611 fps= 76 q=-0.0 size=N/A time=00:20:35.02 bitrate=N/A speed=3.15x    frame=29650 fps= 76 q=-0.0 size=N/A time=00:20:36.65 bitrate=N/A speed=3.15x    frame=29685 fps= 76 q=-0.0 size=N/A time=00:20:38.11 bitrate=N/A speed=3.15x    frame=29727 fps= 76 q=-0.0 size=N/A time=00:20:39.86 bitrate=N/A speed=3.15x    frame=29764 fps= 76 q=-0.0 size=N/A time=00:20:41.40 bitrate=N/A speed=3.15x    frame=29805 fps= 76 q=-0.0 size=N/A time=00:20:43.11 bitrate=N/A speed=3.15x    frame=29845 fps= 76 q=-0.0 size=N/A time=00:20:44.78 bitrate=N/A speed=3.15x    frame=29883 fps= 76 q=-0.0 size=N/A time=00:20:46.37 bitrate=N/A speed=3.15x    frame=29924 fps= 76 q=-0.0 size=N/A time=00:20:48.08 bitrate=N/A speed=3.15x    frame=29962 fps= 76 q=-0.0 size=N/A time=00:20:49.66 bitrate=N/A speed=3.15x    frame=30002 fps= 76 q=-0.0 size=N/A time=00:20:51.33 bitrate=N/A speed=3.15x    frame=30041 fps= 76 q=-0.0 size=N/A time=00:20:52.96 bitrate=N/A speed=3.15x    frame=30080 fps= 76 q=-0.0 size=N/A time=00:20:54.58 bitrate=N/A speed=3.15x    frame=30117 fps= 76 q=-0.0 size=N/A time=00:20:56.12 bitrate=N/A speed=3.15x    frame=30144 fps= 75 q=-0.0 size=N/A time=00:20:57.25 bitrate=N/A speed=3.15x    frame=30198 fps= 76 q=-0.0 size=N/A time=00:20:59.50 bitrate=N/A speed=3.15x    frame=30234 fps= 76 q=-0.0 size=N/A time=00:21:01.00 bitrate=N/A speed=3.15x    frame=30270 fps= 76 q=-0.0 size=N/A time=00:21:02.51 bitrate=N/A speed=3.15x    frame=30316 fps= 76 q=-0.0 size=N/A time=00:21:04.42 bitrate=N/A speed=3.15x    frame=30355 fps= 76 q=-0.0 size=N/A time=00:21:06.05 bitrate=N/A speed=3.15x    frame=30387 fps= 76 q=-0.0 size=N/A time=00:21:07.39 bitrate=N/A speed=3.15x    frame=30432 fps= 76 q=-0.0 size=N/A time=00:21:09.26 bitrate=N/A speed=3.15x    frame=30472 fps= 76 q=-0.0 size=N/A time=00:21:10.93 bitrate=N/A speed=3.15x    frame=30512 fps= 76 q=-0.0 size=N/A time=00:21:12.60 bitrate=N/A speed=3.15x    frame=30551 fps= 76 q=-0.0 size=N/A time=00:21:14.23 bitrate=N/A speed=3.15x    frame=30590 fps= 76 q=-0.0 size=N/A time=00:21:15.85 bitrate=N/A speed=3.15x    frame=30629 fps= 76 q=-0.0 size=N/A time=00:21:17.48 bitrate=N/A speed=3.15x    frame=30660 fps= 76 q=-0.0 size=N/A time=00:21:18.77 bitrate=N/A speed=3.15x    frame=30706 fps= 76 q=-0.0 size=N/A time=00:21:20.69 bitrate=N/A speed=3.15x    frame=30747 fps= 76 q=-0.0 size=N/A time=00:21:22.40 bitrate=N/A speed=3.15x    frame=30786 fps= 76 q=-0.0 size=N/A time=00:21:24.03 bitrate=N/A speed=3.15x    frame=30814 fps= 76 q=-0.0 size=N/A time=00:21:25.20 bitrate=N/A speed=3.15x    frame=30863 fps= 76 q=-0.0 size=N/A time=00:21:27.24 bitrate=N/A speed=3.15x    frame=30903 fps= 76 q=-0.0 size=N/A time=00:21:28.91 bitrate=N/A speed=3.15x    frame=30943 fps= 76 q=-0.0 size=N/A time=00:21:30.58 bitrate=N/A speed=3.15x    frame=30982 fps= 76 q=-0.0 size=N/A time=00:21:32.20 bitrate=N/A speed=3.15x    frame=31022 fps= 76 q=-0.0 size=N/A time=00:21:33.87 bitrate=N/A speed=3.15x    frame=31061 fps= 76 q=-0.0 size=N/A time=00:21:35.50 bitrate=N/A speed=3.15x    frame=31093 fps= 76 q=-0.0 size=N/A time=00:21:36.83 bitrate=N/A speed=3.15x    frame=31141 fps= 76 q=-0.0 size=N/A time=00:21:38.83 bitrate=N/A speed=3.15x    frame=31176 fps= 76 q=-0.0 size=N/A time=00:21:40.29 bitrate=N/A speed=3.15x    frame=31220 fps= 76 q=-0.0 size=N/A time=00:21:42.13 bitrate=N/A speed=3.15x    frame=31260 fps= 76 q=-0.0 size=N/A time=00:21:43.80 bitrate=N/A speed=3.15x    frame=31287 fps= 76 q=-0.0 size=N/A time=00:21:44.92 bitrate=N/A speed=3.15x    frame=31332 fps= 76 q=-0.0 size=N/A time=00:21:46.80 bitrate=N/A speed=3.15x    frame=31378 fps= 76 q=-0.0 size=N/A time=00:21:48.72 bitrate=N/A speed=3.15x    frame=31411 fps= 76 q=-0.0 size=N/A time=00:21:50.10 bitrate=N/A speed=3.15x    frame=31456 fps= 76 q=-0.0 size=N/A time=00:21:51.97 bitrate=N/A speed=3.15x    frame=31494 fps= 76 q=-0.0 size=N/A time=00:21:53.56 bitrate=N/A speed=3.15x    frame=31529 fps= 76 q=-0.0 size=N/A time=00:21:55.02 bitrate=N/A speed=3.15x    frame=31574 fps= 76 q=-0.0 size=N/A time=00:21:56.89 bitrate=N/A speed=3.15x    frame=31613 fps= 76 q=-0.0 size=N/A time=00:21:58.52 bitrate=N/A speed=3.15x    frame=31652 fps= 76 q=-0.0 size=N/A time=00:22:00.15 bitrate=N/A speed=3.15x    frame=31692 fps= 76 q=-0.0 size=N/A time=00:22:01.82 bitrate=N/A speed=3.15x    frame=31730 fps= 76 q=-0.0 size=N/A time=00:22:03.40 bitrate=N/A speed=3.15x    frame=31770 fps= 76 q=-0.0 size=N/A time=00:22:05.07 bitrate=N/A speed=3.15x    frame=31808 fps= 76 q=-0.0 size=N/A time=00:22:06.65 bitrate=N/A speed=3.15x    frame=31846 fps= 76 q=-0.0 size=N/A time=00:22:08.24 bitrate=N/A speed=3.15x    frame=31886 fps= 76 q=-0.0 size=N/A time=00:22:09.91 bitrate=N/A speed=3.15x    frame=31923 fps= 76 q=-0.0 size=N/A time=00:22:11.45 bitrate=N/A speed=3.15x    frame=31964 fps= 76 q=-0.0 size=N/A time=00:22:13.16 bitrate=N/A speed=3.15x    frame=32004 fps= 76 q=-0.0 size=N/A time=00:22:14.83 bitrate=N/A speed=3.15x    frame=32043 fps= 76 q=-0.0 size=N/A time=00:22:16.46 bitrate=N/A speed=3.15x    frame=32080 fps= 76 q=-0.0 size=N/A time=00:22:18.00 bitrate=N/A speed=3.15x    frame=32110 fps= 76 q=-0.0 size=N/A time=00:22:19.25 bitrate=N/A speed=3.15x    frame=32159 fps= 76 q=-0.0 size=N/A time=00:22:21.29 bitrate=N/A speed=3.15x    frame=32198 fps= 76 q=-0.0 size=N/A time=00:22:22.92 bitrate=N/A speed=3.15x    frame=32237 fps= 76 q=-0.0 size=N/A time=00:22:24.55 bitrate=N/A speed=3.15x    frame=32277 fps= 76 q=-0.0 size=N/A time=00:22:26.21 bitrate=N/A speed=3.15x    frame=32311 fps= 76 q=-0.0 size=N/A time=00:22:27.63 bitrate=N/A speed=3.15x    frame=32355 fps= 76 q=-0.0 size=N/A time=00:22:29.47 bitrate=N/A speed=3.15x    frame=32394 fps= 76 q=-0.0 size=N/A time=00:22:31.09 bitrate=N/A speed=3.15x    frame=32428 fps= 76 q=-0.0 size=N/A time=00:22:32.51 bitrate=N/A speed=3.15x    frame=32471 fps= 76 q=-0.0 size=N/A time=00:22:34.31 bitrate=N/A speed=3.15x    frame=32511 fps= 76 q=-0.0 size=N/A time=00:22:35.97 bitrate=N/A speed=3.15x    frame=32550 fps= 76 q=-0.0 size=N/A time=00:22:37.60 bitrate=N/A speed=3.15x    frame=32581 fps= 76 q=-0.0 size=N/A time=00:22:38.89 bitrate=N/A speed=3.15x    frame=32619 fps= 76 q=-0.0 size=N/A time=00:22:40.48 bitrate=N/A speed=3.15x    frame=32658 fps= 76 q=-0.0 size=N/A time=00:22:42.11 bitrate=N/A speed=3.15x    frame=32707 fps= 76 q=-0.0 size=N/A time=00:22:44.15 bitrate=N/A speed=3.15x    frame=32739 fps= 76 q=-0.0 size=N/A time=00:22:45.48 bitrate=N/A speed=3.15x    frame=32784 fps= 76 q=-0.0 size=N/A time=00:22:47.36 bitrate=N/A speed=3.15x    frame=32820 fps= 76 q=-0.0 size=N/A time=00:22:48.86 bitrate=N/A speed=3.15x    frame=32860 fps= 76 q=-0.0 size=N/A time=00:22:50.53 bitrate=N/A speed=3.15x    frame=32898 fps= 76 q=-0.0 size=N/A time=00:22:52.12 bitrate=N/A speed=3.15x    frame=32938 fps= 76 q=-0.0 size=N/A time=00:22:53.78 bitrate=N/A speed=3.15x    frame=32976 fps= 76 q=-0.0 size=N/A time=00:22:55.37 bitrate=N/A speed=3.15x    frame=33014 fps= 76 q=-0.0 size=N/A time=00:22:56.95 bitrate=N/A speed=3.15x    frame=33050 fps= 76 q=-0.0 size=N/A time=00:22:58.46 bitrate=N/A speed=3.15x    frame=33094 fps= 76 q=-0.0 size=N/A time=00:23:00.29 bitrate=N/A speed=3.15x    frame=33131 fps= 76 q=-0.0 size=N/A time=00:23:01.83 bitrate=N/A speed=3.15x    frame=33173 fps= 76 q=-0.0 size=N/A time=00:23:03.59 bitrate=N/A speed=3.15x    frame=33212 fps= 76 q=-0.0 size=N/A time=00:23:05.21 bitrate=N/A speed=3.15x    frame=33250 fps= 76 q=-0.0 size=N/A time=00:23:06.80 bitrate=N/A speed=3.15x    frame=33288 fps= 76 q=-0.0 size=N/A time=00:23:08.38 bitrate=N/A speed=3.15x    frame=33319 fps= 76 q=-0.0 size=N/A time=00:23:09.67 bitrate=N/A speed=3.15x    frame=33366 fps= 76 q=-0.0 size=N/A time=00:23:11.64 bitrate=N/A speed=3.15x    frame=33405 fps= 76 q=-0.0 size=N/A time=00:23:13.26 bitrate=N/A speed=3.15x    frame=33444 fps= 76 q=-0.0 size=N/A time=00:23:14.89 bitrate=N/A speed=3.15x    frame=33483 fps= 76 q=-0.0 size=N/A time=00:23:16.52 bitrate=N/A speed=3.15x    frame=33523 fps= 76 q=-0.0 size=N/A time=00:23:18.18 bitrate=N/A speed=3.15x    frame=33561 fps= 76 q=-0.0 size=N/A time=00:23:19.77 bitrate=N/A speed=3.15x    frame=33602 fps= 76 q=-0.0 size=N/A time=00:23:21.48 bitrate=N/A speed=3.15x    frame=33640 fps= 76 q=-0.0 size=N/A time=00:23:23.06 bitrate=N/A speed=3.15x    frame=33680 fps= 76 q=-0.0 size=N/A time=00:23:24.73 bitrate=N/A speed=3.15x    frame=33706 fps= 76 q=-0.0 size=N/A time=00:23:25.82 bitrate=N/A speed=3.15x    frame=33759 fps= 76 q=-0.0 size=N/A time=00:23:28.03 bitrate=N/A speed=3.15x    frame=33796 fps= 76 q=-0.0 size=N/A time=00:23:29.57 bitrate=N/A speed=3.15x    frame=33837 fps= 76 q=-0.0 size=N/A time=00:23:31.28 bitrate=N/A speed=3.15x    frame=33876 fps= 76 q=-0.0 size=N/A time=00:23:32.91 bitrate=N/A speed=3.15x    frame=33909 fps= 76 q=-0.0 size=N/A time=00:23:34.28 bitrate=N/A speed=3.15x    frame=33952 fps= 76 q=-0.0 size=N/A time=00:23:36.08 bitrate=N/A speed=3.15x    frame=33992 fps= 76 q=-0.0 size=N/A time=00:23:37.74 bitrate=N/A speed=3.15x    frame=34032 fps= 76 q=-0.0 size=N/A time=00:23:39.41 bitrate=N/A speed=3.15x    frame=34073 fps= 76 q=-0.0 size=N/A time=00:23:41.12 bitrate=N/A speed=3.15x    [Parsed_ssim_10 @ 0000022e4e19db00] SSIM Y:0.993499 (21.870364) U:0.993752 (22.042910) V:0.993424 (21.820663) All:0.993529 (21.890272)
[out#0/null @ 0000022e4dc13ec0] video:14644KiB audio:266532KiB subtitle:0KiB other streams:0KiB global headers:0KiB muxing overhead: unknown
frame=34080 fps= 76 q=-0.0 Lsize=N/A time=00:23:41.42 bitrate=N/A speed=3.15x    
